<ttFont>
          <CharString index="0">
            vlineto
            -106 callsubr
            return
          </CharString>
          <CharString index="1">
            26 -102 callsubr
            return
          </CharString>
          <CharString index="2">
            -107 callgsubr
            227 -107 callsubr
            return
          </CharString>
          <CharString index="3">
            -101 callsubr
            -202 88 202 -107 callsubr
            return
          </CharString>
          <CharString index="4">
            -53 -98 callgsubr
            return
          </CharString>
          <CharString index="5">
            5 -90 callgsubr
            return
          </CharString>
          <CharString index="6">
            -100 callsubr
            277 59 -236 hlineto
            -101 callgsubr
            244 hlineto
            26 7 -66 callgsubr
            return
          </CharString>
          <CharString index="7">
            vlineto
            -105 callgsubr
            return
          </CharString>
          <CharString index="8">
            26 -86 callgsubr
            return
          </CharString>
          <CharString index="9">
            -26 -5 -79 callgsubr
            return
          </CharString>
          <CharString index="10">
            5 26 hvcurveto
            return
          </CharString>
          <CharString index="11">
            -53 -26 -26 -53 hvcurveto
            -95 88 84 -93 callgsubr
            return
          </CharString>
          <CharString index="12">
            vlineto
            -98 callsubr
            return
          </CharString>
          <CharString index="13">
            -95 callgsubr
            -268 hlineto
            return
          </CharString>
          <CharString index="14">
            -89 callgsubr
            269 return
          </CharString>
          <CharString index="15">
            -87 callgsubr
            -87 return
          </CharString>
          <CharString index="16">
            539 hlineto
            18 12 4 11 7 hvcurveto
            -93 88 -91 callgsubr
          </CharString>
          <CharString index="17">
            53 26 -77 callgsubr
            return
          </CharString>
          <CharString index="18">
            -84 callgsubr
            190 return
          </CharString>
          <CharString index="19">
            -55 callsubr
            392 -40 callsubr
            return
          </CharString>
          <CharString index="20">
            178 callgsubr
            26 5 5 26 vhcurveto
            return
          </CharString>
          <CharString index="21">
            286 -88 callsubr
            return
          </CharString>
          <CharString index="22">
            -106 callgsubr
            227 return
          </CharString>
          <CharString index="23">
            -105 callgsubr
            -91 callsubr
          </CharString>
          <CharString index="24">
            -61 callsubr
            337 272 callsubr
            199 -48 callgsubr
            return
          </CharString>
          <CharString index="25">
            -80 callgsubr
            -166 vlineto
            -44 callsubr
            return
          </CharString>
          <CharString index="26">
            53 -26 -43 callgsubr
            return
          </CharString>
          <CharString index="27">
            14 11 3 6 7 hvcurveto
            return
          </CharString>
          <CharString index="28">
            -81 callgsubr
            269 return
          </CharString>
          <CharString index="29">
            vlineto
            -81 callsubr
            return
          </CharString>
          <CharString index="30">
            -59 527 hlineto
            -89 callsubr
            return
          </CharString>
          <CharString index="31">
            rmoveto
            -230 78 230 hlineto
            -319 -97 callgsubr
            return
          </CharString>
          <CharString index="32">
            -104 callgsubr
            146 callgsubr
            return
          </CharString>
          <CharString index="33">
            1 6 0 7 7 vvcurveto
            177 vlineto
            14 -3 8 -6 5 vhcurveto
            return
          </CharString>
          <CharString index="34">
            -77 callgsubr
            269 230 -426 -57 callgsubr
          </CharString>
          <CharString index="35">
            -327 -87 callsubr
            return
          </CharString>
          <CharString index="36">
            485 -76 callsubr
            return
          </CharString>
          <CharString index="37">
            -95 callsubr
            -266 -103 callgsubr
            return
          </CharString>
          <CharString index="38">
            -99 callsubr
            -162 -95 callsubr
            return
          </CharString>
          <CharString index="39">
            -20 callgsubr
            426 rmoveto
            -32 -38 callsubr
            -32 86 485 vlineto
            endchar
          </CharString>
          <CharString index="40">
            159 callsubr
            105 8 callgsubr
            return
          </CharString>
          <CharString index="41">
            -160 -59 callsubr
            return
          </CharString>
          <CharString index="42">
            -23 callgsubr
            596 -346 vlineto
            -29 -11 -10 -29 vhcurveto
            -288 -5 callgsubr
            328 hlineto
            18 11 4 10 7 hvcurveto
            -134 88 -91 callgsubr
          </CharString>
          <CharString index="43">
            -59 -62 callsubr
            return
          </CharString>
          <CharString index="44">
            -106 callgsubr
            265 return
          </CharString>
          <CharString index="45">
            -63 callgsubr
            406 return
          </CharString>
          <CharString index="46">
            116 callgsubr
            116 -89 -105 -95 callsubr
            -264 37 callsubr
            return
          </CharString>
          <CharString index="47">
            hlineto
            -99 callsubr
            return
          </CharString>
          <CharString index="48">
            -59 160 -30 callsubr
            return
          </CharString>
          <CharString index="49">
            -347 107 callgsubr
            return
          </CharString>
          <CharString index="50">
            -59 488 -230 hlineto
            -26 -5 -5 -26 vhcurveto
            -228 174 -89 -397 87 callsubr
            return
          </CharString>
          <CharString index="51">
            67 callsubr
            -11 callsubr
          </CharString>
          <CharString index="52">
            -92 callsubr
            88 return
          </CharString>
          <CharString index="53">
            -83 callgsubr
            165 -89 -154 225 callgsubr
            305 vlineto
            26 5 5 26 vhcurveto
            return
          </CharString>
          <CharString index="54">
            -69 callsubr
            -298 137 -89 -397 hlineto
            -105 callgsubr
            return
          </CharString>
          <CharString index="55">
            -100 callsubr
            368 -54 callsubr
            return
          </CharString>
          <CharString index="56">
            -100 callsubr
            286 hlineto
            14 11 3 6 7 hvcurveto
            121 callsubr
          </CharString>
          <CharString index="57">
            -270 -262 4 hlineto
            -60 callgsubr
            return
          </CharString>
          <CharString index="58">
            rmoveto
            -25 215 callsubr
            -267 21 callsubr
            112 28 callsubr
            return
          </CharString>
          <CharString index="59">
            -137 -396 hlineto
            -41 callgsubr
            return
          </CharString>
          <CharString index="60">
            23 -9 -19 9 -27 hhcurveto
            -237 hlineto
            -53 -26 -26 -53 hvcurveto
            -327 69 callgsubr
            return
          </CharString>
          <CharString index="61">
            -106 callsubr
            264 73 callgsubr
            -336 105 callsubr
            return
          </CharString>
          <CharString index="62">
            hlineto
            53 25 -77 callgsubr
            132 -48 callgsubr
            -207 -59 145 callgsubr
            -110 -95 callsubr
            -312 hlineto
            -101 callgsubr
            return
          </CharString>
          <CharString index="63">
            -31 15 -16 26 -2 vhcurveto
            -4 295 callgsubr
            return
          </CharString>
          <CharString index="64">
            hlineto
            -31 callsubr
            return
          </CharString>
          <CharString index="65">
            -249 -51 callsubr
          </CharString>
          <CharString index="66">
            rmoveto
            -81 callsubr
            -327 hlineto
            6 callgsubr
            327 -83 callgsubr
            -86 11 rmoveto
            -98 callsubr
            -250 -103 callgsubr
            442 -107 callsubr
            250 -60 callsubr
            return
          </CharString>
          <CharString index="67">
            vlineto
            -25 callsubr
            return
          </CharString>
          <CharString index="68">
            21 callgsubr
            25 -73 callsubr
          </CharString>
          <CharString index="69">
            vlineto
            -47 callsubr
            return
          </CharString>
          <CharString index="70">
            53 -25 -43 callgsubr
            return
          </CharString>
          <CharString index="71">
            hlineto
            53 26 26 53 hvcurveto
            153 -19 callsubr
            return
          </CharString>
          <CharString index="72">
            vlineto
            -34 callsubr
            return
          </CharString>
          <CharString index="73">
            -46 callsubr
            -134 224 callsubr
            153 return
          </CharString>
          <CharString index="74">
            rmoveto
            96 callgsubr
            hlineto
            -101 callgsubr
            228 -60 callsubr
            -296 90 rmoveto
            23 callgsubr
            302 265 callsubr
          </CharString>
          <CharString index="75">
            rmoveto
            147 380 149 -380 rlineto
            71 -182 rmoveto
            87 hlineto
            -243 622 rlineto
            -127 hlineto
            -242 -622 rlineto
            88 hlineto
            47 123 rlineto
            342 hlineto
            endchar
          </CharString>
          <CharString index="76">
            -26 -6 -97 callsubr
            return
          </CharString>
          <CharString index="77">
            -563 12 callsubr
            return
          </CharString>
          <CharString index="78">
            117 callgsubr
            190 return
          </CharString>
          <CharString index="79">
            346 -51 callgsubr
          </CharString>
          <CharString index="80">
            -78 -327 vlineto
            -23 callsubr
            return
          </CharString>
          <CharString index="81">
            6 callsubr
            -97 89 86 -35 callsubr
            return
          </CharString>
          <CharString index="82">
            26 8 8 26 vhcurveto
            return
          </CharString>
          <CharString index="83">
            314 26 callsubr
            155 -78 callsubr
            -324 hlineto
            -103 callsubr
            return
          </CharString>
          <CharString index="84">
            -21 callsubr
            -95 -8 callsubr
            return
          </CharString>
          <CharString index="85">
            86 callsubr
            -96 callgsubr
            return
          </CharString>
          <CharString index="86">
            236 callsubr
            -19 callgsubr
            return
          </CharString>
          <CharString index="87">
            23 callgsubr
            392 -45 callsubr
            return
          </CharString>
          <CharString index="88">
            -3 callgsubr
            53 vlineto
            283 callgsubr
            return
          </CharString>
          <CharString index="89">
            280 callgsubr
            416 -246 rlineto
            -2 -5 -6 -1 -8 hhcurveto
            return
          </CharString>
          <CharString index="90">
            hlineto
            106 152 rlineto
            121 callsubr
          </CharString>
          <CharString index="91">
            rmoveto
            47 -20 22 -45 vhcurveto
            -222 hlineto
            -44 -21 -22 -47 hvcurveto
            -193 vlineto
            -47 21 -22 44 vhcurveto
            222 hlineto
            45 20 22 47 hvcurveto
            -70 12 rmoveto
            -24 -3 -5 -24 vhcurveto
            -157 hlineto
            -24 -3 5 24 hvcurveto
            169 vlineto
            24 3 5 24 vhcurveto
            157 hlineto
            24 3 -5 -24 hvcurveto
            return
          </CharString>
          <CharString index="92">
            26 6 -66 callgsubr
            return
          </CharString>
          <CharString index="93">
            -107 callsubr
            171 59 -171 -103 callgsubr
            162 -107 callsubr
            return
          </CharString>
          <CharString index="94">
            273 callsubr
            -783 -59 541 -27 callsubr
            return
          </CharString>
          <CharString index="95">
            -59 140 -406 7 callsubr
            return
          </CharString>
          <CharString index="96">
            -426 -16 callgsubr
          </CharString>
          <CharString index="97">
            563 118 callsubr
          </CharString>
          <CharString index="98">
            137 rmoveto
            -64 callgsubr
            return
          </CharString>
          <CharString index="99">
            vlineto
            4 callgsubr
            return
          </CharString>
          <CharString index="100">
            323 173 callgsubr
            266 -89 -95 vlineto
            -26 -8 -8 -26 vhcurveto
            -280 -106 callgsubr
            return
          </CharString>
          <CharString index="101">
            176 34 callgsubr
            -29 vhcurveto
            -496 -103 callgsubr
            86 268 -47 callgsubr
            73 -78 callsubr
            return
          </CharString>
          <CharString index="102">
            -81 callsubr
            -318 -43 callsubr
            return
          </CharString>
          <CharString index="103">
            rmoveto
            268 hlineto
            108 callgsubr
            346 59 -922 -59 488 -230 vlineto
            -53 callgsubr
            1021 532 66 callsubr
            -173 295 callsubr
            -36 callgsubr
            11 160 callsubr
            -44 5 callsubr
          </CharString>
          <CharString index="104">
            23 -5 -16 10 -36 hhcurveto
            return
          </CharString>
          <CharString index="105">
            vlineto
            -10 callgsubr
          </CharString>
          <CharString index="106">
            rmoveto
            79 -78 callsubr
            -288 hlineto
            23 callgsubr
            288 20 callsubr
          </CharString>
          <CharString index="107">
            -60 callsubr
            -60 return
          </CharString>
          <CharString index="108">
            hlineto
            26 17 5 11 10 hvcurveto
            -11 13 19 -5 24 246 callsubr
          </CharString>
          <CharString index="109">
            87 callsubr
            596 -346 vlineto
            -29 -11 -10 -29 vhcurveto
            -288 -103 callgsubr
            155 215 callgsubr
            277 59 -313 hlineto
            236 callsubr
            -178 vlineto
            -50 22 -29 50 vhcurveto
            261 hlineto
            -123 -167 rlineto
            98 hlineto
            134 185 rlineto
            -137 88 -91 callgsubr
          </CharString>
          <CharString index="110">
            vlineto
            -46 callgsubr
            -280 -103 callgsubr
            return
          </CharString>
          <CharString index="111">
            -249 -2 callsubr
          </CharString>
          <CharString index="112">
            vlineto
            -83 callsubr
            567 hmoveto
            -249 -622 -16 callgsubr
          </CharString>
          <CharString index="113">
            -81 callsubr
            -346 hlineto
            -103 callsubr
            return
          </CharString>
          <CharString index="114">
            hlineto
            14 callgsubr
            return
          </CharString>
          <CharString index="115">
            622 rmoveto
            return
          </CharString>
          <CharString index="116">
            -29 -13 -12 -21 -4 hvcurveto
            -4 hlineto
            -3 callsubr
            253 callgsubr
            -96 callgsubr
            281 hlineto
            36 16 10 23 5 hvcurveto
            4 hlineto
            -22 5 12 -11 29 hhcurveto
            292 -83 callgsubr
            249 -78 callsubr
            return
          </CharString>
          <CharString index="117">
            hlineto
            -89 -166 rlineto
            89 hlineto
            66 134 64 -134 rlineto
            90 hlineto
            -88 166 rlineto
            return
          </CharString>
          <CharString index="118">
            vlineto
            -9 callgsubr
          </CharString>
          <CharString index="119">
            89 117 callsubr
            return
          </CharString>
          <CharString index="120">
            -77 -95 callsubr
            -250 -103 callgsubr
            77 -83 -89 vlineto
            -53 26 -25 53 vhcurveto
            return
          </CharString>
          <CharString index="121">
            91 callsubr
            337 -392 vlineto
            -46 callgsubr
            return
          </CharString>
          <CharString index="122">
            338 -51 callgsubr
          </CharString>
          <CharString index="123">
            hlineto
            26 17 5 11 10 hvcurveto
            -11 13 19 -5 24 246 callgsubr
          </CharString>
          <CharString index="124">
            100 callgsubr
            -308 hlineto
            -101 callgsubr
            308 -32 callgsubr
            227 168 rmoveto
            59 -826 -59 368 -78 -149 179 callgsubr
            return
          </CharString>
          <CharString index="125">
            rmoveto
            -98 callsubr
            290 callsubr
            -7 -97 callsubr
            137 vlineto
            283 callgsubr
            228 -60 callsubr
            return
          </CharString>
          <CharString index="126">
            338 -83 callgsubr
            return
          </CharString>
          <CharString index="127">
            -83 callgsubr
            79 -86 -68 -95 callsubr
            -212 hlineto
            -101 callgsubr
            212 -60 callsubr
            -68 vlineto
            endchar
          </CharString>
          <CharString index="128">
            hlineto
            40 callgsubr
            return
          </CharString>
          <CharString index="129">
            rmoveto
            40 callgsubr
            118 50 callsubr
            394 -251 rlineto
            -2 -3 0 -3 hhcurveto
            return
          </CharString>
          <CharString index="130">
            -59 140 -406 return
          </CharString>
          <CharString index="131">
            203 -52 callgsubr
            363 337 vlineto
            return
          </CharString>
          <CharString index="132">
            -25 callsubr
            243 -61 callgsubr
            -227 -59 268 -83 callgsubr
            249 -12 callgsubr
          </CharString>
          <CharString index="133">
            vlineto
            53 26 25 53 hvcurveto
            return
          </CharString>
          <CharString index="134">
            rmoveto
            109 -78 callsubr
            -337 hlineto
            6 callgsubr
            337 190 callsubr
            -256 -59 169 -171 vlineto
            -31 callgsubr
            442 -107 callsubr
            257 -60 callsubr
            -98 vlineto
            endchar
          </CharString>
          <CharString index="135">
            38 callgsubr
            hlineto
            return
          </CharString>
          <CharString index="136">
            -8 callsubr
            357 122 callsubr
          </CharString>
          <CharString index="137">
            -105 callgsubr
            15 callsubr
          </CharString>
          <CharString index="138">
            -78 callgsubr
            566 196 rmoveto
            return
          </CharString>
          <CharString index="139">
            -59 578 -78 -370 vlineto
            236 callsubr
            -62 -8 callsubr
            344 -60 callsubr
            -66 -95 callsubr
            -329 53 -89 -190 89 78 370 -83 callgsubr
            88 -78 callsubr
            -344 -103 callgsubr
            40 -107 callsubr
            return
          </CharString>
          <CharString index="140">
            235 rlineto
            -22 callsubr
            405 hlineto
            return
          </CharString>
          <CharString index="141">
            314 -88 callsubr
            return
          </CharString>
          <CharString index="142">
            rmoveto
            32 hlineto
            64 125 rlineto
            44 -96 vlineto
            return
          </CharString>
          <CharString index="143">
            207 254 callgsubr
            168 -107 callsubr
            338 -199 hlineto
            -98 callsubr
            -534 426 rmoveto
            565 -137 -376 148 callgsubr
            386 198 callgsubr
            59 -763 vlineto
            return
          </CharString>
          <CharString index="144">
            -103 callgsubr
            175 return
          </CharString>
          <CharString index="145">
            vlineto
            24 callgsubr
            return
          </CharString>
          <CharString index="146">
            -59 160 -484 hlineto
            51 callsubr
          </CharString>
          <CharString index="147">
            -103 callsubr
            -95 88 84 vlineto
            283 callgsubr
            264 -32 callgsubr
            -177 -30 callgsubr
            -295 49 -89 return
          </CharString>
          <CharString index="148">
            rmoveto
            -107 callgsubr
            return
          </CharString>
          <CharString index="149">
            174 278 callsubr
            return
          </CharString>
          <CharString index="150">
            264 callgsubr
            -140 199 callgsubr
            return
          </CharString>
          <CharString index="151">
            -6 -5 -3 -8 -14 vvcurveto
            return
          </CharString>
          <CharString index="152">
            22 callgsubr
            566 196 rmoveto
            return
          </CharString>
          <CharString index="153">
            319 -54 hlineto
            -128 10 -58 0 vhcurveto
            -11 -233 rmoveto
            -98 callsubr
            -308 -103 callgsubr
            132 215 callgsubr
            308 hlineto
            26 5 -6 -26 hvcurveto
            -54 89 rmoveto
            -284 -43 callsubr
            38 vlineto
            120 -7 43 -1 6 vhcurveto
            return
          </CharString>
          <CharString index="154">
            rmoveto
            230 293 59 -293 215 334 59 -423 -622 437 59 vlineto
            endchar
          </CharString>
          <CharString index="155">
            -10 177 622 100 callsubr
            return
          </CharString>
          <CharString index="156">
            5 callgsubr
            383 -37 callgsubr
            return
          </CharString>
          <CharString index="157">
            vlineto
            41 -3 61 0 vhcurveto
            return
          </CharString>
          <CharString index="158">
            -105 callgsubr
            374 -83 callgsubr
            117 -89 -106 -95 callsubr
            -292 -103 callgsubr
            473 360 -189 -30 callgsubr
            -153 -59 194 -83 callgsubr
            200 136 vlineto
            endchar
          </CharString>
          <CharString index="159">
            rmoveto
            23 3 5 25 vhcurveto
            131 hlineto
            25 3 -5 -23 hvcurveto
            -21 vlineto
            -23 -3 -5 -25 vhcurveto
            -131 hlineto
            -25 -3 5 23 hvcurveto
            182 -75 rmoveto
            44 22 20 46 hvcurveto
            39 vlineto
            45 -22 21 -44 vhcurveto
            -177 hlineto
            -44 -22 -21 -45 hvcurveto
            -39 vlineto
            -46 22 -20 44 vhcurveto
            return
          </CharString>
          <CharString index="160">
            55 callsubr
            -58 return
          </CharString>
          <CharString index="161">
            vlineto
            57 callgsubr
            return
          </CharString>
          <CharString index="162">
            hlineto
            -80 callgsubr
            return
          </CharString>
          <CharString index="163">
            rmoveto
            -11 callgsubr
            return
          </CharString>
          <CharString index="164">
            -59 140 -406 vlineto
            14 callgsubr
            return
          </CharString>
          <CharString index="165">
            36 callgsubr
            -325 -200 hlineto
            -105 callgsubr
            467 hlineto
            -147 -143 243 callgsubr
            return
          </CharString>
          <CharString index="166">
            -26 -8 -8 126 callgsubr
            return
          </CharString>
          <CharString index="167">
            153 callsubr
            81 callsubr
            return
          </CharString>
          <CharString index="168">
            139 callsubr
            234 -60 callsubr
            -117 vlineto
            return
          </CharString>
          <CharString index="169">
            vlineto
            68 callgsubr
          </CharString>
          <CharString index="170">
            -17 callgsubr
            -315 -198 230 callsubr
            return
          </CharString>
          <CharString index="171">
            hlineto
            -103 callsubr
            -71 89 60 -107 callsubr
            224 86 callgsubr
            return
          </CharString>
          <CharString index="172">
            -1 -6 0 -7 -7 vvcurveto
            59 callgsubr
          </CharString>
          <CharString index="173">
            rmoveto
            40 callsubr
            return
          </CharString>
          <CharString index="174">
            -87 callsubr
            338 return
          </CharString>
          <CharString index="175">
            vlineto
            -32 70 callgsubr
            -31 vvcurveto
            return
          </CharString>
          <CharString index="176">
            vlineto
            -282 -266 243 callgsubr
            176 175 rlineto
            0 return
          </CharString>
          <CharString index="177">
            rmoveto
            102 -137 rlineto
            95 hlineto
            -106 137 rlineto
            return
          </CharString>
          <CharString index="178">
            106 hlineto
            75 callgsubr
          </CharString>
          <CharString index="179">
            43 callgsubr
            314 -55 callsubr
            return
          </CharString>
          <CharString index="180">
            624 845 394 rmoveto
            24 4 8 26 vhcurveto
            226 hlineto
            26 4 -8 -24 hvcurveto
            -100 vlineto
            -24 -8 -8 -16 vhcurveto
            -236 hlineto
            -18 -8 10 22 hvcurveto
            -231 269 rmoveto
            723 59 -1357 -59 547 -301 -77 hlineto
            -161 155 rlineto
            63 -65 -54 5 -76 hhcurveto
            -39 -62 20 hlineto
            44 50 -5 -50 54 hvcurveto
            141 -134 -288 -234 rlineto
            120 hlineto
            246 202 rlineto
            85 -202 87 202 return
          </CharString>
          <CharString index="181">
            34 callgsubr
            -30 vhcurveto
            -504 -103 callgsubr
            130 98 callgsubr
            229 hlineto
            268 59 rmoveto
            -1033 58 callsubr
            155 158 rlineto
            -104 88 563 180 vlineto
            endchar
          </CharString>
          <CharString index="182">
            hlineto
            -17 callgsubr
            -315 return
          </CharString>
          <CharString index="183">
            rmoveto
            268 hlineto
            108 callgsubr
            550 59 -1126 -59 488 -230 vlineto
            -53 callgsubr
            615 88 rmoveto
            40 callgsubr
            156 -107 callsubr
            283 59 -319 hlineto
            -53 -25 -25 -53 hvcurveto
            -178 -8 callsubr
            406 58 hlineto
            endchar
          </CharString>
          <CharString index="184">
            42 hlineto
            -81 callsubr
            -274 -43 callsubr
            39 -88 -51 99 callsubr
            275 hlineto
            26 5 -6 -26 hvcurveto
            -30 return
          </CharString>
          <CharString index="185">
            -103 callgsubr
            40 -107 callsubr
            endchar
          </CharString>
          <CharString index="186">
            271 callgsubr
            53 -26 26 -53 vhcurveto
            return
          </CharString>
          <CharString index="187">
            127 68 -103 108 hhcurveto
            98 hlineto
            55 23 30 47 hvcurveto
            84 -82 -58 vlineto
            -32 -16 -13 -40 vhcurveto
            -135 -44 103 -121 hhcurveto
            -102 hlineto
            -55 -22 -28 -48 hvcurveto
            -84 82 59 vlineto
            32 15 11 41 vhcurveto
            return
          </CharString>
          <CharString index="188">
            -249 vlineto
            -53 26 -26 53 vhcurveto
            -7 callsubr
            return
          </CharString>
          <CharString index="189">
            134 callgsubr
            543 return
          </CharString>
          <CharString index="190">
            108 callsubr
            563 161 vlineto
            endchar
          </CharString>
          <CharString index="191">
            hlineto
            53 25 -77 callgsubr
            327 -48 callgsubr
            -151 78 hlineto
            endchar
          </CharString>
          <CharString index="192">
            44 callsubr
            -177 vlineto
            -44 callsubr
            return
          </CharString>
          <CharString index="193">
            345 59 -383 hlineto
            -103 callsubr
            return
          </CharString>
          <CharString index="194">
            hlineto
            -23 callgsubr
            return
          </CharString>
          <CharString index="195">
            27 19 9 23 9 hvcurveto
            return
          </CharString>
          <CharString index="196">
            41 callsubr
            130 98 callgsubr
            109 59 -645 58 callsubr
            159 162 rlineto
            35 40 hlineto
            endchar
          </CharString>
          <CharString index="197">
            -318 -317 hlineto
            -31 callgsubr
            return
          </CharString>
          <CharString index="198">
            41 callsubr
            395 return
          </CharString>
          <CharString index="199">
            hlineto
            -44 195 143 callsubr
            -4 hlineto
            115 callgsubr
            35 -33 24 -20 14 -10 rlinecurve
            return
          </CharString>
          <CharString index="200">
            71 259 563 rmoveto
            298 -58 hlineto
            -104 8 -57 3 -21 vhcurveto
            -328 -12 41 callsubr
            32 vlineto
            120 -9 50 -2 7 vhcurveto
            309 -240 rlineto
            return
          </CharString>
          <CharString index="201">
            rmoveto
            88 hlineto
            162 143 rlineto
            -110 hlineto
            return
          </CharString>
          <CharString index="202">
            -96 callgsubr
            25 callgsubr
            return
          </CharString>
          <CharString index="203">
            -60 callsubr
            -106 return
          </CharString>
          <CharString index="204">
            42 callsubr
            -58 return
          </CharString>
          <CharString index="205">
            -95 callsubr
            -227 return
          </CharString>
          <CharString index="206">
            vlineto
            -53 25 -25 53 vhcurveto
            return
          </CharString>
          <CharString index="207">
            rmoveto
            -87 -543 hlineto
            82 callsubr
            -86 -532 -95 callsubr
            -268 -103 callgsubr
            return
          </CharString>
          <CharString index="208">
            82 callgsubr
            -281 177 callgsubr
            return
          </CharString>
          <CharString index="209">
            563 161 vlineto
            endchar
          </CharString>
          <CharString index="210">
            -883 -59 635 -392 hlineto
            -26 -8 -8 -26 vhcurveto
            -341 16 callgsubr
            384 95 callgsubr
            160 vlineto
            endchar
          </CharString>
          <CharString index="211">
            -54 -98 callgsubr
            -8 vlineto
            -38 10 -31 0 vhcurveto
            0 -15 44 -36 49 vhcurveto
            -45 63 rlineto
            -97 hlineto
            72 -98 return
          </CharString>
          <CharString index="212">
            vlineto
            51 callgsubr
            return
          </CharString>
          <CharString index="213">
            vlineto
            -17 callgsubr
            -315 return
          </CharString>
          <CharString index="214">
            159 callgsubr
            -320 178 callgsubr
            183 callgsubr
            return
          </CharString>
          <CharString index="215">
            vlineto
            114 callsubr
            return
          </CharString>
          <CharString index="216">
            -248 -451 hlineto
            -46 callgsubr
            return
          </CharString>
          <CharString index="217">
            127 callsubr
            -1151 -64 callsubr
            230 return
          </CharString>
          <CharString index="218">
            -319 159 callsubr
            86 hlineto
            45 15 4 26 vhcurveto
            49 60 -71 hlineto
            104 callsubr
            31 -43 28 -33 21 -21 rlinecurve
            -157 247 callsubr
            return
          </CharString>
          <CharString index="219">
            119 callsubr
            280 10 callsubr
            250 271 callgsubr
            return
          </CharString>
          <CharString index="220">
            hlineto
            53 25 -77 callgsubr
            71 -89 -60 260 callgsubr
            -6 5 26 hvcurveto
            132 vlineto
            26 6 6 26 vhcurveto
            405 return
          </CharString>
          <CharString index="221">
            -105 callgsubr
            240 162 callgsubr
            104 hlineto
            145 175 rlineto
            -121 88 return
          </CharString>
          <CharString index="222">
            137 callgsubr
            -2 -15 -15 -32 vvcurveto
            return
          </CharString>
          <CharString index="223">
            rmoveto
            -58 callgsubr
            return
          </CharString>
          <CharString index="224">
            563 160 return
          </CharString>
          <CharString index="225">
            160 hlineto
            endchar
          </CharString>
          <CharString index="226">
            85 callsubr
            -179 -100 callsubr
            return
          </CharString>
          <CharString index="227">
            87 callgsubr
            406 return
          </CharString>
          <CharString index="228">
            -87 88 392 vlineto
            25 callsubr
          </CharString>
          <CharString index="229">
            -36 callsubr
            endchar
          </CharString>
          <CharString index="230">
            rmoveto
            -140 143 rlineto
            234 callsubr
            return
          </CharString>
          <CharString index="231">
            -123 -100 callsubr
            return
          </CharString>
          <CharString index="232">
            26 539 622 222 callgsubr
            return
          </CharString>
          <CharString index="233">
            -31 15 -16 26 -1 vhcurveto
            return
          </CharString>
          <CharString index="234">
            rmoveto
            -64 callgsubr
            597 485 rmoveto
            return
          </CharString>
          <CharString index="235">
            -26 -10 -9 -24 vhcurveto
            return
          </CharString>
          <CharString index="236">
            -253 -230 42 callsubr
            return
          </CharString>
          <CharString index="237">
            284 hlineto
            -297 -367 rlineto
            -59 389 59 -297 vlineto
            297 367 rlineto
            return
          </CharString>
          <CharString index="238">
            hlineto
            -95 -165 rlineto
            88 hlineto
            61 123 59 -123 rlineto
            89 hlineto
            -93 165 rlineto
            return
          </CharString>
          <CharString index="239">
            41 callsubr
            155 215 callgsubr
            277 59 -313 hlineto
            236 callsubr
            -178 vlineto
            -50 22 -29 50 vhcurveto
            253 hlineto
            -114 -167 rlineto
            97 hlineto
            130 195 rlineto
            21 31 hlineto
            endchar
          </CharString>
          <CharString index="240">
            241 callsubr
            -829 -59 549 196 callgsubr
            return
          </CharString>
          <CharString index="241">
            -385 110 8 callsubr
            -622 88 622 vlineto
            return
          </CharString>
          <CharString index="242" raw="1">
            2d1df82a 0b  
          </CharString>
          <CharString index="243">
            -230 hlineto
            96 callgsubr
            return
          </CharString>
          <CharString index="244">
            -5 6 25 hvcurveto
            return
          </CharString>
          <CharString index="245">
            -392 hlineto
            -95 callgsubr
            return
          </CharString>
          <CharString index="246">
            rmoveto
            144 callsubr
            return
          </CharString>
          <CharString index="247">
            274 callsubr
            268 -421 rlineto
            -201 87 201 vlineto
            endchar
          </CharString>
          <CharString index="248">
            110 160 callgsubr
            -106 99 callsubr
            277 -87 callgsubr
            -48 81 250 93 -47 callgsubr
            298 -78 callsubr
            -93 78 hlineto
            endchar
          </CharString>
          <CharString index="249">
            rmoveto
            -498 -59 398 hlineto
            -408 -504 rlineto
            -59 498 59 -398 vlineto
            408 504 rlineto
            endchar
          </CharString>
          <CharString index="250">
            rlineto
            -84 hlineto
            22 -52 24 -59 16 -44 21 -40 rlinecurve
            return
          </CharString>
          <CharString index="251">
            117 -107 callsubr
            return
          </CharString>
          <CharString index="252">
            -103 callgsubr
            129 return
          </CharString>
          <CharString index="253">
            -89 8 -49 0 vhcurveto
            -394 252 rlineto
            -22 callsubr
            392 39 callgsubr
          </CharString>
          <CharString index="254">
            rmoveto
            280 callgsubr
            396 -246 rlineto
            -2 -4 -7 -1 -8 hhcurveto
            return
          </CharString>
          <CharString index="255">
            rmoveto
            -123 -83 123 hlineto
            return
          </CharString>
          <CharString index="256">
            171 rmoveto
            -46 callgsubr
            -396 hlineto
            193 callgsubr
            430 hlineto
            return
          </CharString>
          <CharString index="257">
            -103 callsubr
            -33 91 callgsubr
            54 hlineto
            endchar
          </CharString>
          <CharString index="258">
            -105 callgsubr
            323 -87 callgsubr
            -142 89 300 -89 -74 3 callsubr
            172 -107 callsubr
            endchar
          </CharString>
          <CharString index="259">
            -100 callsubr
            441 59 -400 -103 callgsubr
            return
          </CharString>
          <CharString index="260">
            274 callgsubr
            -103 callsubr
            return
          </CharString>
          <CharString index="261" raw="1">
            3c1dfbbb 0b  
          </CharString>
          <CharString index="262">
            35 callsubr
            endchar
          </CharString>
          <CharString index="263">
            270 callsubr
            32 -15 14 -26 2 vhcurveto
            4 vlineto
            26 2 15 16 31 vvcurveto
            return
          </CharString>
          <CharString index="264">
            vlineto
            -44 callsubr
            -119 -100 callsubr
            return
          </CharString>
          <CharString index="265">
            -407 186 hmoveto
            485 -86 -485 vlineto
            return
          </CharString>
          <CharString index="266">
            389 12 callgsubr
            return
          </CharString>
          <CharString index="267">
            10 1 2 8 hvcurveto
            return
          </CharString>
          <CharString index="268">
            174 callsubr
            252 rlineto
            345 59 return
          </CharString>
          <CharString index="269">
            hlineto
            51 callgsubr
            return
          </CharString>
          <CharString index="270">
            563 rmoveto
            408 -221 hlineto
            -83 6 -61 0 vhcurveto
            -378 -61 41 callsubr
            208 289 callgsubr
            402 -354 rlineto
            -6 -6 -8 -2 -14 hhcurveto
            return
          </CharString>
          <CharString index="271">
            -76 callsubr
            568 196 rmoveto
            return
          </CharString>
          <CharString index="272">
            -123 rmoveto
            -26 -9 -10 -26 vhcurveto
            -121 -58 149 hlineto
            54 34 27 61 hvcurveto
            79 -81 vlineto
            return
          </CharString>
          <CharString index="273">
            vlineto
            -377 235 223 callgsubr
            5 11 10 hvcurveto
            -11 13 19 -5 24 hhcurveto
            return
          </CharString>
          <CharString index="274">
            -47 callgsubr
            464 228 callsubr
          </CharString>
          <CharString index="275">
            hlineto
            145 175 rlineto
            -121 266 callsubr
          </CharString>
          <CharString index="276">
            rmoveto
            234 callsubr
            88 hlineto
            endchar
          </CharString>
          <CharString index="277">
            -59 140 -374 -100 callsubr
            240 162 callgsubr
            104 hlineto
            return
          </CharString>
          <CharString index="278">
            242 callgsubr
            87 191 callsubr
            return
          </CharString>
          <CharString index="279">
            -78 176 callgsubr
            return
          </CharString>
          <CharString index="280">
            rmoveto
            137 168 59 return
          </CharString>
          <CharString index="281">
            190 callgsubr
            -394 return
          </CharString>
          <CharString index="282">
            -107 callsubr
            422 return
          </CharString>
          <CharString index="283">
            -59 140 -374 108 callsubr
            392 -40 callsubr
            return
          </CharString>
          <CharString index="284">
            -363 180 callsubr
            return
          </CharString>
          <CharString index="285">
            250 callsubr
            -165 hlineto
            267 callgsubr
            return
          </CharString>
          <CharString index="286">
            7 0 7 -1 6 vhcurveto
            return
          </CharString>
          <CharString index="287">
            -317 hlineto
            -81 callgsubr
            return
          </CharString>
          <CharString index="288">
            -54 callsubr
            endchar
          </CharString>
          <CharString index="289">
            -60 callsubr
            -105 return
          </CharString>
          <CharString index="290">
            hlineto
            105 callgsubr
            -86 callsubr
            return
          </CharString>
          <CharString index="291">
            -66 186 callsubr
            return
          </CharString>
          <CharString index="292">
            -563 -57 callgsubr
          </CharString>
          <CharString index="293">
            197 59 15 callgsubr
            220 hlineto
            24 10 -9 -26 hvcurveto
            -297 214 callgsubr
            return
          </CharString>
          <CharString index="294">
            rmoveto
            193 callgsubr
            return
          </CharString>
          <CharString index="295">
            hlineto
            194 callsubr
          </CharString>
          <CharString index="296">
            -59 159 callgsubr
            return
          </CharString>
          <CharString index="297">
            -83 callgsubr
            241 return
          </CharString>
          <CharString index="298">
            vlineto
            24 8 9 26 vhcurveto
            return
          </CharString>
          <CharString index="299">
            vlineto
            -2 callgsubr
            return
          </CharString>
          <CharString index="300">
            -107 callsubr
            383 137 269 242 callsubr
            -1169 285 callsubr
            return
          </CharString>
          <CharString index="301">
            105 callgsubr
            392 39 callgsubr
          </CharString>
          <CharString index="302">
            hlineto
            26 17 6 256 callgsubr
            -6 25 246 callsubr
          </CharString>
          <CharString index="303">
            -304 hlineto
            -29 -11 -13 -20 -6 hvcurveto
            -4 hlineto
            -3 callsubr
            return
          </CharString>
          <CharString index="304">
            rmoveto
            -173 205 rlineto
            -103 hlineto
            82 -98 41 -49 43 -38 24 -20 rlinecurve
            return
          </CharString>
          <CharString index="305">
            hlineto
            -103 callsubr
            -67 return
          </CharString>
          <CharString index="306">
            -406 vlineto
            210 callsubr
          </CharString>
          <CharString index="307" raw="1">
            2d1df7e2 060b  
          </CharString>
          <CharString index="308">
            -59 -63 callgsubr
            return
          </CharString>
          <CharString index="309">
            rmoveto
            137 152 59 -781 -59 540 -78 -326 vlineto
            -53 return
          </CharString>
          <CharString index="310" raw="1">
            f7a006c0 a50b  
          </CharString>
          <CharString index="311">
            -107 callsubr
            213 59 -213 -103 callgsubr
            123 -107 callsubr
            430 hlineto
            return
          </CharString>
          <CharString index="312">
            rmoveto
            -83 123 83 vlineto
            137 hmoveto
            -83 123 83 vlineto
            endchar
          </CharString>
          <CharString index="313">
            -211 hlineto
            -105 callgsubr
            return
          </CharString>
          <CharString index="314">
            -328 vlineto
            -53 return
          </CharString>
          <CharString index="315">
            -107 callgsubr
            227 197 callgsubr
            -8 -14 vvcurveto
            return
          </CharString>
          <CharString index="316">
            vlineto
            49 -23 29 -56 vhcurveto
            -301 hlineto
            -56 -23 -29 -49 hvcurveto
            -86 vlineto
            -28 3 -20 10 -11 vhcurveto
            -157 hlineto
            endchar
          </CharString>
          <CharString index="317">
            -105 callgsubr
            123 callgsubr
          </CharString>
          <CharString index="318">
            -160 147 rlineto
            290 callgsubr
            return
          </CharString>
          <CharString index="319">
            90 rmoveto
            -98 callsubr
            return
          </CharString>
          <CharString index="320">
            vlineto
            179 callsubr
            return
          </CharString>
          <CharString index="321">
            hlineto
            53 26 25 53 hvcurveto
            return
          </CharString>
          <CharString index="322">
            -5 -6 -26 vhcurveto
            return
          </CharString>
          <CharString index="323">
            180 rmoveto
            -110 vlineto
            -46 callgsubr
            -279 hlineto
            -26 -6 6 25 hvcurveto
            82 vlineto
            283 callgsubr
            return
          </CharString>
          <CharString index="324">
            -78 56 callgsubr
            return
          </CharString>
          <CharString index="325">
            137 22 callsubr
            return
          </CharString>
          <CharString index="326">
            -89 -95 vlineto
            -46 callgsubr
            -260 -106 callgsubr
            endchar
          </CharString>
          <CharString index="327">
            -35 callgsubr
            613 hmoveto
            59 return
          </CharString>
          <CharString index="328">
            -1 -6 0 -7 -7 vvcurveto
            -71 callgsubr
            269 vlineto
            return
          </CharString>
          <CharString index="329">
            231 callgsubr
            230 return
          </CharString>
          <CharString index="330">
            71 616 426 131 callgsubr
            return
          </CharString>
          <CharString index="331">
            vlineto
            116 callgsubr
            return
          </CharString>
          <CharString index="332">
            hlineto
            -46 callgsubr
            -280 -103 callgsubr
            return
          </CharString>
          <CharString index="333" raw="1">
            fb960671 860b  
          </CharString>
          <CharString index="334">
            vlineto
            47 callgsubr
          </CharString>
          <CharString index="335">
            -78 callsubr
            endchar
          </CharString>
          <CharString index="336">
            vlineto
            -53 22 -22 53 vhcurveto
            return
          </CharString>
          <CharString index="337">
            hlineto
            24 callgsubr
            return
          </CharString>
          <CharString index="338">
            rmoveto
            -114 hlineto
            -262 -240 262 -245 rlineto
            114 hlineto
            -266 245 rlineto
            endchar
          </CharString>
          <CharString index="339">
            54 -27 -43 callgsubr
            -322 -103 callgsubr
            return
          </CharString>
          <CharString index="340" raw="1">
            06a49c90 f7941d86 a31b0b 
          </CharString>
          <CharString index="341">
            -110 hlineto
            162 -143 rlineto
            return
          </CharString>
          <CharString index="342" raw="1">
            f7a007c0 a50b  
          </CharString>
          <CharString index="343">
            -53 -25 -76 callgsubr
            return
          </CharString>
          <CharString index="344">
            246 rmoveto
            137 166 59 -821 -59 567 -78 -350 vlineto
            -103 callsubr
            return
          </CharString>
          <CharString index="345">
            -310 -304 321 -318 243 callgsubr
            -325 318 311 304 rlineto
            return
          </CharString>
          <CharString index="346">
            -245 rmoveto
            47 -18 29 -56 vhcurveto
            -57 -58 20 hlineto
            26 3 -9 -24 hvcurveto
            -229 82 63 return
          </CharString>
          <CharString index="347">
            hlineto
            211 callsubr
            return
          </CharString>
          <CharString index="348">
            rmoveto
            137 191 59 return
          </CharString>
          <CharString index="349">
            hlineto
            216 callgsubr
            return
          </CharString>
          <CharString index="350">
            -105 callgsubr
            309 -37 callgsubr
            return
          </CharString>
          <CharString index="351">
            hlineto
            -17 callgsubr
            588 254 rmoveto
            return
          </CharString>
          <CharString index="352">
            vlineto
            -69 callsubr
            610 283 rmoveto
            return
          </CharString>
          <CharString index="353">
            hhcurveto
            -91 callsubr
          </CharString>
          <CharString index="354">
            -59 callsubr
            hlineto
            return
          </CharString>
          <CharString index="355">
            hlineto
            -103 callsubr
            -97 return
          </CharString>
          <CharString index="356">
            rmoveto
            91 93 -91 hlineto
            endchar
          </CharString>
          <CharString index="357">
            -36 258 callsubr
            return
          </CharString>
          <CharString index="358" raw="1">
            f76df71d 15f7ac1d 0b 
          </CharString>
          <CharString index="359">
            276 callgsubr
            -229 90 rmoveto
            return
          </CharString>
          <CharString index="360">
            -112 -100 callsubr
            return
          </CharString>
          <CharString index="361">
            -103 callgsubr
            141 return
          </CharString>
          <CharString index="362">
            hlineto
            53 25 25 53 hvcurveto
            return
          </CharString>
          <CharString index="363">
            vlineto
            -48 22 -30 56 vhcurveto
            return
          </CharString>
          <CharString index="364">
            -173 rmoveto
            79 callgsubr
            return
          </CharString>
          <CharString index="365">
            -87 hlineto
            -103 callsubr
            -33 91 callgsubr
            54 return
          </CharString>
          <CharString index="366">
            -169 32 vlineto
            64 125 rlineto
            44 vlineto
            return
          </CharString>
          <CharString index="367">
            -622 rmoveto
            192 622 -192 hlineto
            return
          </CharString>
          <CharString index="368" raw="1">
            fbe40756 710b  
          </CharString>
          <CharString index="369">
            93 hlineto
            -6 -5 -3 return
          </CharString>
          <CharString index="370" raw="1">
            1ef741c6 0b  
          </CharString>
          <CharString index="371">
            -103 callgsubr
            216 -107 callsubr
            265 return
          </CharString>
          <CharString index="372">
            79 callsubr
            endchar
          </CharString>
          <CharString index="373">
            88 102 callsubr
          </CharString>
          <CharString index="374">
            rlineto
            -58 36 20 -6 70 hhcurveto
            265 hlineto
            53 22 22 53 hvcurveto
            return
          </CharString>
          <CharString index="375">
            vlineto
            -31 15 -17 26 -1 vhcurveto
            -4 295 callgsubr
            return
          </CharString>
          <CharString index="376">
            209 243 rmoveto
            268 hlineto
            108 callgsubr
            return
          </CharString>
          <CharString index="377">
            92 callgsubr
            vlineto
            return
          </CharString>
          <CharString index="378">
            -107 callsubr
            297 hlineto
            return
          </CharString>
          <CharString index="379">
            vlineto
            53 25 -77 callgsubr
            return
          </CharString>
          <CharString index="380">
            rmoveto
            137 154 59 return
          </CharString>
          <CharString index="381">
            rmoveto
            -89 hlineto
            -212 -348 -221 348 rlineto
            -90 hlineto
            return
          </CharString>
          <CharString index="382">
            hlineto
            -53 -25 -25 -53 hvcurveto
            -197 -8 callsubr
            return
          </CharString>
          <CharString index="383">
            -83 callgsubr
            464 -78 callsubr
            return
          </CharString>
          <CharString index="384">
            -78 callsubr
            -336 hlineto
            -103 callsubr
            return
          </CharString>
          <CharString index="385">
            hlineto
            6 callsubr
            return
          </CharString>
          <CharString index="386">
            622 292 callgsubr
            return
          </CharString>
          <CharString index="387">
            -53 -27 -25 -53 hvcurveto
            -132 vlineto
            -53 27 -25 53 vhcurveto
            return
          </CharString>
          <CharString index="388">
            -78 240 callsubr
            return
          </CharString>
          <CharString index="389" raw="1">
            fb280622 1d0b  
          </CharString>
          <CharString index="390">
            vlineto
            216 callgsubr
            return
          </CharString>
          <CharString index="391">
            26 vhcurveto
            243 -60 callsubr
            -305 return
          </CharString>
          <CharString index="392">
            -59 563 -78 -336 hlineto
            -103 callsubr
            return
          </CharString>
          <CharString index="393">
            -407 100 485 rmoveto
            -485 86 485 vlineto
            return
          </CharString>
          <CharString index="394">
            vlineto
            53 -26 25 -53 vhcurveto
            return
          </CharString>
          <CharString index="395">
            hlineto
            -53 -22 -22 -53 hvcurveto
            return
          </CharString>
          <CharString index="396">
            -59 843 -78 -654 return
          </CharString>
          <CharString index="397">
            -227 hlineto
            -26 return
          </CharString>
          <CharString index="398">
            -53 60 277 rmoveto
            520 68 -520 hlineto
            return
          </CharString>
          <CharString index="399">
            hlineto
            -54 -163 rlineto
            77 hlineto
            54 163 rlineto
            return
          </CharString>
          <CharString index="400">
            84 -107 callsubr
            return
          </CharString>
          <CharString index="401">
            -79 callgsubr
            303 callsubr
            return
          </CharString>
          <CharString index="402">
            hlineto
            230 callgsubr
            return
          </CharString>
          <CharString index="403">
            319 hlineto
            26 5 return
          </CharString>
          <CharString index="404">
            -410 360 rlineto
            return
          </CharString>
          <CharString index="405">
            -54 -48 vvcurveto
            -28 return
          </CharString>
          <CharString index="406">
            -266 hlineto
            -58 callgsubr
            return
          </CharString>
          <CharString index="407" raw="1">
            f76df71d 15b31d0b  
          </CharString>
          <CharString index="408">
            19 callsubr
            269 return
          </CharString>
          <CharString index="409">
            563 rmoveto
            59 return
          </CharString>
          <CharString index="410">
            -284 hlineto
            -26 return
          </CharString>
        <CharString name=".notdef">
          -205 endchar
        </CharString>
        <CharString name="A">
          -11 193 182 -32 callsubr
        </CharString>
        <CharString name="AE">
          321 275 204 rmoveto
          253 348 rlineto
          -348 vlineto
          88 -145 rmoveto
          230 294 59 -294 215 325 59 -454 vlineto
          -456 -622 rlineto
          95 hlineto
          106 145 rlineto
          296 -145 426 59 hlineto
          endchar
        </CharString>
        <CharString name="Aacute">
          -11 557 813 43 callsubr
          -202 -488 -32 callsubr
        </CharString>
        <CharString name="Abreve">
          -11 459 669 80 callgsubr
          -29 -487 -32 callsubr
        </CharString>
        <CharString name="Acircumflex">
          -11 340 770 rmoveto
          64 callgsubr
          -166 -143 rlineto
          101 hlineto
          -32 -487 -32 callsubr
        </CharString>
        <CharString name="Adieresis">
          -11 534 752 148 callsubr
          -260 83 148 callsubr
          -81 -487 -32 callsubr
        </CharString>
        <CharString name="Agrave">
          -11 369 670 123 callsubr
          -88 -488 -32 callsubr
        </CharString>
        <CharString name="Amacron">
          -11 515 728 235 callgsubr
          -322 -488 -32 callsubr
        </CharString>
        <CharString name="Aogonek">
          -11 193 182 rmoveto
          147 380 149 -380 rlineto
          9 -355 rmoveto
          267 callgsubr
          4 hlineto
          -4 10 rlineto
          1 vlineto
          0 vlineto
          -239 611 rlineto
          -127 hlineto
          -242 -622 rlineto
          88 hlineto
          47 123 rlineto
          342 hlineto
          48 -123 rlineto
          -36 -87 vlineto
          150 callsubr
        </CharString>
        <CharString name="Aring">
          -11 247 766 52 callsubr
          -59 -488 -32 callsubr
        </CharString>
        <CharString name="Atilde">
          -11 223 725 rmoveto
          15 5 8 12 vhcurveto
          -6 callgsubr
          vlineto
          -30 -487 -32 callsubr
        </CharString>
        <CharString name="B">
          0 100 8 callsubr
          -622 424 -47 callgsubr
          182 vlineto
          31 -15 14 -26 4 vhcurveto
          26 2 15 19 31 vvcurveto
          181 -78 callsubr
          -7 -533 rmoveto
          -25 -8 callgsubr
          -297 223 298 -60 callsubr
          121 vmoveto
          -98 callsubr
          -298 222 298 -60 callsubr
          endchar
        </CharString>
        <CharString name="C">
          -49 584 413 -7 callgsubr
        </CharString>
        <CharString name="CR">
          -693 endchar
        </CharString>
        <CharString name="Cacute">
          -49 540 813 43 callsubr
          206 -257 -7 callgsubr
        </CharString>
        <CharString name="Ccaron">
          -49 390 669 -1 callgsubr
          294 -256 -7 callgsubr
        </CharString>
        <CharString name="Ccedilla">
          -49 288 165 callsubr
          296 463 -7 callgsubr
        </CharString>
        <CharString name="D">
          2 517 212 callsubr
          -298 504 298 -60 callsubr
          -417 90 rmoveto
          -622 426 167 callsubr
        </CharString>
        <CharString name="Dcaron">
          2 390 669 -1 callgsubr
          227 -579 rmoveto
          -98 callsubr
          -298 504 298 -60 callsubr
          -417 90 rmoveto
          -622 426 167 callsubr
        </CharString>
        <CharString name="Dcroat">
          62 577 127 callgsubr
        </CharString>
        <CharString name="E">
          -106 189 59 47 callsubr
        </CharString>
        <CharString name="Eacute">
          -106 533 812 43 callsubr
          -182 -610 47 callsubr
        </CharString>
        <CharString name="Ecaron">
          -106 380 669 -1 callgsubr
          -91 -380 rmoveto
          293 59 -293 215 334 59 -423 -622 437 59 -348 hlineto
          endchar
        </CharString>
        <CharString name="Ecircumflex">
          -106 318 770 rmoveto
          64 callgsubr
          -166 -143 rlineto
          101 hlineto
          -14 -610 47 callsubr
        </CharString>
        <CharString name="Edieresis">
          -106 503 752 148 callsubr
          -260 83 148 callsubr
          -54 -610 47 callsubr
        </CharString>
        <CharString name="Edotaccent">
          -106 384 761 rmoveto
          -107 -91 107 hlineto
          -195 -611 47 callsubr
        </CharString>
        <CharString name="Egrave">
          -106 360 669 123 callsubr
          -83 -610 47 callsubr
        </CharString>
        <CharString name="Emacron">
          -106 491 727 235 callgsubr
          -302 -610 47 callsubr
        </CharString>
        <CharString name="Eogonek">
          -106 392 257 callsubr
          148 -348 230 293 59 -293 215 334 59 -423 -622 354 -36 136 callgsubr
        </CharString>
        <CharString name="Eth">
          20 535 127 callgsubr
        </CharString>
        <CharString name="Euro">
          2 635 413 rmoveto
          130 277 callsubr
          -138 -101 -59 101 -69 -101 -59 101 -139 -100 callsubr
          336 -83 callgsubr
          130 -88 -119 -95 callsubr
          -256 -103 callgsubr
          128 186 59 -186 69 186 59 -186 127 -107 callsubr
          256 -60 callsubr
          -119 vlineto
          endchar
        </CharString>
        <CharString name="F">
          -139 524 302 callsubr
          -424 -622 89 265 296 59 -296 239 vlineto
          endchar
        </CharString>
        <CharString name="G">
          -28 585 434 27 callsubr
        </CharString>
        <CharString name="Gbreve">
          -28 450 669 80 callgsubr
          372 -235 27 callsubr
        </CharString>
        <CharString name="H">
          51 556 8 callsubr
          -281 -368 281 -88 -622 88 282 368 -282 88 622 vlineto
          endchar
        </CharString>
        <CharString name="I">
          134 callsubr
          endchar
        </CharString>
        <CharString name="Iacute">
          134 callsubr
          -82 47 94 callsubr
          endchar
        </CharString>
        <CharString name="Icircumflex">
          134 callsubr
          -254 48 rmoveto
          101 hlineto
          115 101 64 callgsubr
          endchar
        </CharString>
        <CharString name="Idieresis">
          134 callsubr
          -236 130 205 callsubr
        </CharString>
        <CharString name="Idotaccent">
          286 callsubr
          -97 138 rmoveto
          -91 107 91 vlineto
          endchar
        </CharString>
        <CharString name="Igrave">
          134 callsubr
          -152 190 169 callsubr
        </CharString>
        <CharString name="Imacron">
          134 callsubr
          -212 47 249 callgsubr
          endchar
        </CharString>
        <CharString name="Iogonek">
          -385 48 257 callsubr
          89 5 622 -88 -658 136 callgsubr
        </CharString>
        <CharString name="J">
          -102 40 218 rmoveto
          -139 -100 callsubr
          303 -83 callgsubr
          543 -88 -532 -95 callsubr
          -223 -103 callgsubr
          128 vlineto
          endchar
        </CharString>
        <CharString name="K">
          -26 523 8 callsubr
          238 callsubr
          -531 hmoveto
          -622 86 622 vlineto
          endchar
        </CharString>
        <CharString name="L">
          -154 187 59 206 callgsubr
        </CharString>
        <CharString name="Lacute">
          -154 362 812 43 callsubr
          -13 -610 206 callgsubr
        </CharString>
        <CharString name="Lcaron">
          -154 362 813 rmoveto
          -101 hlineto
          -115 -101 -115 101 rlineto
          -101 hlineto
          166 -143 rlineto
          100 hlineto
          -9 -611 206 callgsubr
        </CharString>
        <CharString name="Lslash">
          -154 187 59 rmoveto
          220 vlineto
          169 57 rlineto
          60 vlineto
          -169 -56 rlineto
          282 -87 -312 vlineto
          -121 -40 rlineto
          -61 vlineto
          121 41 rlineto
          -250 409 59 vlineto
          endchar
        </CharString>
        <CharString name="M">
          169 467 135 rmoveto
          219 375 rlineto
          -510 76 622 -95 vlineto
          -241 -411 -231 411 rlineto
          -95 -622 76 510 hlineto
          211 -375 rlineto
          endchar
        </CharString>
        <CharString name="N">
          125 callsubr
          endchar
        </CharString>
        <CharString name="NULL">
          -693 endchar
        </CharString>
        <CharString name="Nacute">
          26 332 667 94 callsubr
          67 -188 209 callgsubr
        </CharString>
        <CharString name="Ncaron">
          26 320 669 rmoveto
          100 hlineto
          166 143 rlineto
          -101 hlineto
          -115 -101 -115 101 rlineto
          -101 hlineto
          385 -190 209 callgsubr
        </CharString>
        <CharString name="Ntilde">
          125 callsubr
          -374 127 rmoveto
          -6 callgsubr
          56 vlineto
          15 5 8 12 vhcurveto
          endchar
        </CharString>
        <CharString name="O">
          -28 575 543 45 callgsubr
        </CharString>
        <CharString name="OE">
          262 491 212 callsubr
          -252 -103 callgsubr
          442 -107 callsubr
          252 -60 callsubr
          92 -473 rmoveto
          230 268 59 -268 215 300 59 -372 -17 vlineto
          11 -13 -19 6 -26 hhcurveto
          -284 hlineto
          6 callgsubr
          284 hlineto
          26 19 6 11 13 hvcurveto
          -17 384 59 vlineto
          endchar
        </CharString>
        <CharString name="Oacute">
          -28 300 669 94 callsubr
          135 -269 45 callgsubr
        </CharString>
        <CharString name="Ocircumflex">
          -28 117 669 rmoveto
          101 hlineto
          115 101 64 callgsubr
          292 -269 45 callgsubr
        </CharString>
        <CharString name="Odieresis">
          -28 575 543 -41 callsubr
          -86 220 168 callgsubr
        </CharString>
        <CharString name="Ograve">
          -28 575 543 -41 callsubr
          -249 280 169 callsubr
        </CharString>
        <CharString name="Ohungarumlaut">
          -28 169 622 rmoveto
          6 callgsubr
          327 276 callsubr
          -7 -90 rmoveto
          -442 -95 callsubr
          -250 -103 callgsubr
          442 -107 callsubr
          250 -60 callsubr
          -137 300 rmoveto
          109 callgsubr
          110 hmoveto
          109 callgsubr
          endchar
        </CharString>
        <CharString name="Omacron">
          -28 162 670 249 callgsubr
          413 -185 45 callgsubr
        </CharString>
        <CharString name="Oslash">
          9 517 87 rmoveto
          -26 -5 -5 -27 vhcurveto
          -270 hlineto
          -2 hlineto
          304 445 rlineto
          -333 34 rmoveto
          -106 callsubr
          270 hlineto
          5 hlineto
          -306 -446 rlineto
          431 524 rmoveto
          -72 hlineto
          -15 -22 rlineto
          -5 hlineto
          -344 hlineto
          -103 callsubr
          -464 vlineto
          -25 6 -19 11 -13 vhcurveto
          -30 -44 rlineto
          73 hlineto
          15 22 rlineto
          4 hlineto
          344 -83 callgsubr
          464 vlineto
          25 -6 19 -11 13 vhcurveto
          endchar
        </CharString>
        <CharString name="Otilde">
          -28 575 543 -41 callsubr
          -274 217 rmoveto
          -6 callgsubr
          56 vlineto
          15 5 8 12 vhcurveto
          endchar
        </CharString>
        <CharString name="P">
          -27 520 293 rmoveto
          -98 callsubr
          -302 301 302 -60 callsubr
          -420 90 rmoveto
          -622 87 203 340 -47 callgsubr
          261 228 callsubr
        </CharString>
        <CharString name="Q">
          -68 469 212 callsubr
          -250 -103 callgsubr
          442 -107 callsubr
          250 -60 callsubr
          86 11 rmoveto
          -81 callsubr
          -327 hlineto
          6 callgsubr
          183 hlineto
          113 -97 rlineto
          109 hlineto
          -115 97 rlineto
          37 -83 callgsubr
          endchar
        </CharString>
        <CharString name="R">
          -6 187 563 54 callgsubr
        </CharString>
        <CharString name="Racute">
          -6 550 810 43 callsubr
          -201 -104 54 callgsubr
        </CharString>
        <CharString name="Rcaron">
          -6 400 667 -1 callgsubr
          -113 -104 54 callgsubr
        </CharString>
        <CharString name="S">
          -45 481 90 71 callgsubr
        </CharString>
        <CharString name="Sacute">
          -45 290 667 94 callsubr
          51 65 callgsubr
        </CharString>
        <CharString name="Scaron">
          -45 280 667 rmoveto
          100 hlineto
          166 143 rlineto
          -101 hlineto
          -115 -101 -115 101 rlineto
          -101 hlineto
          367 65 callgsubr
        </CharString>
        <CharString name="T">
          -128 555 8 callsubr
          -545 261 callgsubr
          hlineto
          endchar
        </CharString>
        <CharString name="Tcaron">
          -128 335 667 -1 callgsubr
          320 -45 rmoveto
          -545 261 callgsubr
          hlineto
          endchar
        </CharString>
        <CharString name="Thorn">
          -27 510 192 rmoveto
          -98 callsubr
          -292 300 292 -60 callsubr
          -323 90 rmoveto
          102 -87 -622 87 102 330 -47 callgsubr
          260 228 callsubr
        </CharString>
        <CharString name="U">
          48 callsubr
          endchar
        </CharString>
        <CharString name="Uacute">
          -10 303 669 94 callsubr
          -266 -190 97 callgsubr
        </CharString>
        <CharString name="Ucircumflex">
          -10 123 669 rmoveto
          101 hlineto
          115 101 64 callgsubr
          -112 -190 97 callgsubr
        </CharString>
        <CharString name="Udieresis">
          -10 507 8 callsubr
          -532 -95 callsubr
          -268 -103 callgsubr
          532 -87 -543 vlineto
          82 callsubr
          vlineto
          -448 130 205 callsubr
        </CharString>
        <CharString name="Ugrave">
          48 callsubr
          81 722 169 callsubr
        </CharString>
        <CharString name="Uhungarumlaut">
          48 callsubr
          382 740 rmoveto
          109 callgsubr
          -310 hmoveto
          109 callgsubr
          endchar
        </CharString>
        <CharString name="Umacron">
          48 callsubr
          -11 579 249 callgsubr
          endchar
        </CharString>
        <CharString name="Uogonek">
          -10 507 8 callsubr
          -532 -95 callsubr
          -268 -103 callgsubr
          532 -87 -543 -100 callsubr
          128 178 callsubr
          134 -83 callgsubr
          543 vlineto
          endchar
        </CharString>
        <CharString name="Uring">
          -10 501 775 118 callgsubr
          -263 -144 97 callgsubr
        </CharString>
        <CharString name="V">
          -5 563 8 callsubr
          -220 -562 -217 562 rlineto
          -88 hlineto
          242 -622 rlineto
          127 hlineto
          243 622 rlineto
          endchar
        </CharString>
        <CharString name="W">
          356 924 8 callsubr
          -189 -561 -162 561 rlineto
          -98 hlineto
          -163 -561 -185 561 rlineto
          -88 hlineto
          211 -622 rlineto
          122 hlineto
          152 521 152 -521 rlineto
          122 hlineto
          212 622 rlineto
          endchar
        </CharString>
        <CharString name="X">
          -26 386 319 rmoveto
          234 303 rlineto
          -97 hlineto
          -189 -246 -191 246 rlineto
          -98 hlineto
          238 -305 -248 -317 rlineto
          97 hlineto
          202 260 200 -260 rlineto
          98 hlineto
          endchar
        </CharString>
        <CharString name="Y">
          -63 621 622 140 callsubr
        </CharString>
        <CharString name="Yacute">
          -63 547 812 43 callsubr
          236 -47 140 callsubr
        </CharString>
        <CharString name="Ydieresis">
          -63 251 752 148 callsubr
          260 83 148 callsubr
          110 -47 140 callsubr
        </CharString>
        <CharString name="Z">
          -65 568 622 142 callsubr
        </CharString>
        <CharString name="Zacute">
          -65 540 812 43 callsubr
          190 140 callgsubr
        </CharString>
        <CharString name="Zcaron">
          -65 370 669 -1 callgsubr
          298 140 callgsubr
        </CharString>
        <CharString name="Zdotaccent">
          -65 383 760 rmoveto
          -107 -91 107 hlineto
          185 140 callgsubr
        </CharString>
        <CharString name="a">
          -66 197 59 -68 callsubr
        </CharString>
        <CharString name="aacute">
          -66 520 675 43 callsubr
          -161 -473 -68 callsubr
        </CharString>
        <CharString name="abreve">
          -66 428 532 80 callgsubr
          6 -473 -68 callsubr
        </CharString>
        <CharString name="acircumflex">
          -66 310 633 rmoveto
          64 callgsubr
          -166 -143 rlineto
          101 hlineto
          2 -473 -68 callsubr
        </CharString>
        <CharString name="acute">
          -93 170 506 94 callsubr
          endchar
        </CharString>
        <CharString name="adieresis">
          -66 504 615 148 callsubr
          -260 83 148 callsubr
          -47 -473 -68 callsubr
        </CharString>
        <CharString name="ae">
          271 197 59 41 callsubr
          68 vlineto
          264 58 rlineto
          -127 vlineto
          -23 -11 -7 -22 vhcurveto
          371 367 rmoveto
          -99 callsubr
          -117 -283 144 callsubr
          -31 -207 rmoveto
          368 187 hlineto
          -81 callsubr
          -272 hlineto
          285 callgsubr
          -248 hlineto
          -103 callsubr
          -95 86 293 callsubr
          200 hlineto
          22 11 -7 -23 hvcurveto
          -118 vlineto
          -350 -78 rlineto
          -121 -100 callsubr
          248 hlineto
          39 20 19 19 6 hvcurveto
          -19 5 20 -19 36 hhcurveto
          269 58 callgsubr
          -218 -103 callgsubr
          endchar
        </CharString>
        <CharString name="agrave">
          -66 359 532 123 callsubr
          -74 -473 -68 callsubr
        </CharString>
        <CharString name="amacron">
          -66 473 590 235 callgsubr
          -276 -473 -68 callsubr
        </CharString>
        <CharString name="ampersand">
          143 196 59 41 callsubr
          56 vlineto
          33 9 17 35 13 vhcurveto
          123 45 236 -195 rlineto
          -229 280 rmoveto
          -58 48 -32 19 47 vvcurveto
          79 -107 callsubr
          221 -60 callsubr
          -81 vlineto
          -42 -15 -19 -44 -16 vhcurveto
          -122 -45 rlineto
          448 -374 rmoveto
          -63 52 rlineto
          27 12 13 24 38 vvcurveto
          145 -70 -136 -95 callsubr
          -1 hlineto
          -266 223 131 48 rlineto
          55 20 23 33 71 vvcurveto
          89 -78 callsubr
          -295 hlineto
          -103 callsubr
          -102 vlineto
          -57 42 -27 53 -43 vhcurveto
          16 -13 -128 -47 rlineto
          -49 -18 -18 -22 -52 vvcurveto
          -83 -100 callsubr
          480 hlineto
          55 -45 rlineto
          endchar
        </CharString>
        <CharString name="aogonek">
          184 callsubr
          -28 -232 rmoveto
          267 callgsubr
          3 485 -86 -32 hlineto
          -47 callsubr
          -68 -87 vlineto
          150 callsubr
        </CharString>
        <CharString name="approxequal">
          84 218 203 rmoveto
          80 callsubr
          220 vmoveto
          80 callsubr
          endchar
        </CharString>
        <CharString name="aring">
          -66 215 628 52 callsubr
          -23 -473 -68 callsubr
        </CharString>
        <CharString name="asciicircum">
          -46 272 668 rmoveto
          -214 -340 rlineto
          91 hlineto
          175 283 174 -283 rlineto
          91 hlineto
          -214 340 rlineto
          endchar
        </CharString>
        <CharString name="asciitilde">
          84 218 273 rmoveto
          80 callsubr
          endchar
        </CharString>
        <CharString name="asterisk">
          -239 191 649 rmoveto
          -65 vlineto
          -24 3 -21 4 -16 vhcurveto
          -15 9 -19 9 -23 8 -61 20 rcurveline
          -23 -70 62 -20 20 -6 20 -5 20 -1 rlinecurve
          -13 -11 -15 -15 -14 -20 -38 -52 rcurveline
          59 -43 38 52 14 20 10 19 6 15 rlinecurve
          7 -15 10 -19 14 -20 38 -53 rcurveline
          59 43 -38 52 -14 20 -15 15 -12 11 rlinecurve
          16 1 21 3 23 8 62 20 rcurveline
          -22 70 -62 -21 -23 -8 -19 -9 -14 -9 rlinecurve
          4 17 3 21 25 vvcurveto
          65 vlineto
          endchar
        </CharString>
        <CharString name="at">
          409 408 426 rmoveto
          -52 -25 -25 -52 hvcurveto
          -194 vlineto
          -52 25 -25 52 vhcurveto
          190 hlineto
          31 26 12 34 4 hvcurveto
          -65 286 vlineto
          52 25 25 52 hvcurveto
          350 vlineto
          52 -25 25 -52 vhcurveto
          -778 hlineto
          -52 -25 -25 -52 hvcurveto
          -481 vlineto
          -52 25 -25 52 vhcurveto
          717 61 -682 hlineto
          -26 -5 5 25 hvcurveto
          452 vlineto
          25 5 6 26 vhcurveto
          710 hlineto
          25 5 -6 -25 hvcurveto
          -323 vlineto
          -25 -5 -5 -25 vhcurveto
          -179 308 -81 -33 hlineto
          23 -8 -20 10 -26 hhcurveto
          -186 -89 rmoveto
          25 5 5 25 vhcurveto
          177 hlineto
          23 10 -9 -25 hvcurveto
          -162 vlineto
          -26 -10 -8 -23 vhcurveto
          -177 hlineto
          -25 -5 5 25 hvcurveto
          endchar
        </CharString>
        <CharString name="atilde">
          -66 179 589 rmoveto
          15 5 8 12 vhcurveto
          -6 callgsubr
          vlineto
          18 -474 -68 callsubr
        </CharString>
        <CharString name="b">
          -66 461 212 callsubr
          -219 hlineto
          -24 -10 9 26 hvcurveto
          24 -1 239 1 34 252 callsubr
          -29 -19 -10 -25 -8 hvcurveto
          219 -86 -669 86 35 vlineto
          -25 8 19 -10 29 hhcurveto
          236 265 callsubr
        </CharString>
        <CharString name="backslash">
          -317 -91 699 rmoveto
          411 -835 rlineto
          87 hlineto
          -411 835 rlineto
          endchar
        </CharString>
        <CharString name="bar">
          -409 100 728 rmoveto
          -835 84 835 vlineto
          endchar
        </CharString>
        <CharString name="braceleft">
          -290 273 619 rmoveto
          29 8 13 30 vhcurveto
          132 59 -165 hlineto
          -69 -22 -32 -62 hvcurveto
          -236 vlineto
          -79 -27 -34 -62 vhcurveto
          -18 -59 18 hlineto
          62 27 -34 -78 hvcurveto
          -233 vlineto
          -62 22 -32 69 vhcurveto
          165 59 -132 hlineto
          -30 -8 13 29 hvcurveto
          247 vlineto
          68 -25 46 -52 6 vhcurveto
          52 6 25 45 70 vvcurveto
          endchar
        </CharString>
        <CharString name="braceright">
          -290 130 368 rmoveto
          -70 25 -45 52 -6 vhcurveto
          -52 -6 -25 -46 -68 vvcurveto
          -247 vlineto
          -29 -8 -13 -30 vhcurveto
          -132 -59 165 hlineto
          69 22 32 62 hvcurveto
          233 vlineto
          78 27 34 62 vhcurveto
          18 59 -18 hlineto
          -62 -27 34 79 hvcurveto
          236 vlineto
          62 -22 32 -69 vhcurveto
          -165 -59 132 hlineto
          30 8 -13 -29 hvcurveto
          endchar
        </CharString>
        <CharString name="bracketleft">
          -376 357 661 rmoveto
          59 -257 -940 257 59 -169 822 vlineto
          endchar
        </CharString>
        <CharString name="bracketright">
          -376 217 720 rmoveto
          -257 -59 169 -822 -169 -59 257 hlineto
          endchar
        </CharString>
        <CharString name="breve">
          -93 418 644 rmoveto
          -51 -95 callsubr
          -175 -103 callgsubr
          51 -79 -59 139 callgsubr
          288 callgsubr
          vlineto
          endchar
        </CharString>
        <CharString name="brokenbar">
          -429 90 248 rmoveto
          -355 84 355 vlineto
          125 vmoveto
          355 -84 -355 vlineto
          endchar
        </CharString>
        <CharString name="bullet">
          -263 215 449 rmoveto
          -74 -61 -58 -71 -71 61 -58 74 75 60 58 71 71 -60 58 -75 hvcurveto
          endchar
        </CharString>
        <CharString name="c">
          -107 526 327 -1 callsubr
        </CharString>
        <CharString name="cacute">
          -107 521 675 43 callsubr
          167 -205 -1 callsubr
        </CharString>
        <CharString name="caron">
          -93 250 506 rmoveto
          100 hlineto
          166 143 rlineto
          -101 hlineto
          -115 -101 -115 101 rlineto
          -101 hlineto
          endchar
        </CharString>
        <CharString name="ccaron">
          -107 350 532 -1 callgsubr
          276 -205 -1 callsubr
        </CharString>
        <CharString name="ccedilla">
          -107 259 165 callsubr
          267 377 -1 callsubr
        </CharString>
        <CharString name="cedilla">
          -93 337 165 callsubr
          endchar
        </CharString>
        <CharString name="cent">
          -107 526 327 rmoveto
          79 -78 callsubr
          -106 76 -83 -76 -99 hlineto
          23 callgsubr
          99 -76 83 76 106 20 callsubr
        </CharString>
        <CharString name="circumflex">
          -93 84 506 rmoveto
          101 hlineto
          115 101 64 callgsubr
          endchar
        </CharString>
        <CharString name="colon">
          -474 60 34 rmoveto
          99 115 -99 hlineto
          187 vmoveto
          99 115 -99 hlineto
          endchar
        </CharString>
        <CharString name="comma">
          -484 60 -137 rmoveto
          33 hlineto
          66 193 rlineto
          62 -99 vlineto
          endchar
        </CharString>
        <CharString name="commaaccent">
          -93 252 -219 155 callsubr
        </CharString>
        <CharString name="copyright">
          351 954 342 rmoveto
          184 -64 96 -158 vhcurveto
          -420 hlineto
          -158 -64 -96 -184 hvcurveto
          -70 vlineto
          -184 64 -88 158 vhcurveto
          420 hlineto
          158 64 88 184 hvcurveto
          -636 -212 rmoveto
          -115 -33 88 122 hvcurveto
          74 vlineto
          122 33 98 115 vhcurveto
          408 hlineto
          115 33 -98 -122 hvcurveto
          -74 vlineto
          -122 -33 -88 -115 vhcurveto
          -88 180 rmoveto
          -98 callsubr
          -168 -103 callgsubr
          154 -107 callsubr
          145 callgsubr
          -26 78 37 -78 callsubr
          -229 hlineto
          -103 callsubr
          -176 -100 callsubr
          229 -83 callgsubr
          37 -78 vlineto
          endchar
        </CharString>
        <CharString name="currency">
          18 230 170 rmoveto
          -33 -8 5 33 hvcurveto
          179 vlineto
          33 8 7 33 vhcurveto
          259 hlineto
          32 9 -7 -33 hvcurveto
          -179 vlineto
          -33 -9 -5 -32 vhcurveto
          119 228 rmoveto
          16 -2 14 -5 12 vhcurveto
          44 43 -54 54 -53 -53 rlineto
          1 -7 -8 1 -9 hhcurveto
          -310 hlineto
          -11 -10 -1 -1 -9 hvcurveto
          -54 53 -54 -54 49 -48 rlineto
          -3 -11 -2 -12 -14 vvcurveto
          -199 vlineto
          -13 2 -12 3 -11 vhcurveto
          -49 -48 54 -53 53 52 rlineto
          -2 9 11 -1 11 hhcurveto
          310 hlineto
          9 8 1 1 8 hvcurveto
          52 -51 54 53 -43 43 rlineto
          4 12 2 13 16 vvcurveto
          endchar
        </CharString>
        <CharString name="d">
          184 callsubr
          34 610 rmoveto
          -216 vlineto
          180 callgsubr
          vlineto
          endchar
        </CharString>
        <CharString name="dagger">
          -97 506 460 rmoveto
          -164 162 -87 -162 -165 -59 165 -514 87 514 164 hlineto
          endchar
        </CharString>
        <CharString name="daggerdbl">
          -97 506 397 rmoveto
          59 -164 166 -87 -166 -165 -59 165 -326 -165 -59 165 -167 87 167 164 59 -164 326 vlineto
          endchar
        </CharString>
        <CharString name="dcaron">
          -66 451 453 rmoveto
          180 callgsubr
          -86 vlineto
          181 hmoveto
          259 callsubr
          -531 -610 15 callgsubr
          220 hlineto
          24 10 -9 -26 hvcurveto
          -297 214 callgsubr
          endchar
        </CharString>
        <CharString name="dcroat">
          184 callsubr
          188 540 rmoveto
          -68 70 -86 -70 -265 -59 265 -87 hlineto
          -47 callsubr
          -32 86 540 68 vlineto
          endchar
        </CharString>
        <CharString name="degree">
          -146 487 545 rmoveto
          52 -25 25 -52 vhcurveto
          -273 hlineto
          -52 -25 -25 -52 hvcurveto
          -131 vlineto
          -52 25 -25 52 vhcurveto
          273 hlineto
          52 25 25 52 hvcurveto
          -80 10 rmoveto
          -98 callsubr
          -204 -103 callgsubr
          112 vlineto
          25 -102 callsubr
          204 hlineto
          26 5 -5 -25 hvcurveto
          endchar
        </CharString>
        <CharString name="dieresis">
          -93 368 625 168 callgsubr
        </CharString>
        <CharString name="divide">
          291 callsubr
          216 159 rmoveto
          -82 88 82 vlineto
          -88 -304 rmoveto
          -82 88 82 vlineto
          endchar
        </CharString>
        <CharString name="dollar">
          -47 197 343 41 callsubr
          158 -107 callsubr
          247 -60 callsubr
          -88 88 99 -78 callsubr
          -123 92 -83 -92 -121 89 callgsubr
          -163 -95 callsubr
          -249 -103 callgsubr
          88 -88 -99 -100 callsubr
          119 -91 83 91 126 -83 callgsubr
          185 228 callsubr
        </CharString>
        <CharString name="dotaccent">
          -93 246 534 rmoveto
          107 91 -107 hlineto
          endchar
        </CharString>
        <CharString name="dotlessi">
          286 callsubr
          endchar
        </CharString>
        <CharString name="dvDDH_DDHA">
          96 644 99 callgsubr
          165 59 -829 -59 576 -78 -358 vlineto
          -53 -25 -27 -53 hvcurveto
          -182 68 callsubr
          -185 99 callsubr
          391 214 callsubr
          50 -78 callsubr
          -86 -62 48 hlineto
          26 5 -6 -25 hvcurveto
          -24 -95 callsubr
          -310 -43 callsubr
          162 vlineto
          25 6 6 26 vhcurveto
          348 214 callsubr
          49 -78 callsubr
          -86 -62 48 -60 callsubr
          -23 -95 callsubr
          -310 -43 callsubr
          161 vlineto
          26 6 7 26 vhcurveto
          endchar
        </CharString>
        <CharString name="dvDD_GA">
          48 609 426 202 callsubr
          -25 -26 -53 hvcurveto
          -76 99 callsubr
          296 callsubr
          -6 -26 hvcurveto
          -120 -95 callsubr
          -274 -43 callsubr
          74 -88 -85 -8 callsubr
          12 -86 hlineto
          -34 callgsubr
          -25 -59 64 -83 callgsubr
          97 162 -231 89 231 8 -47 callgsubr
          143 -19 callsubr
          endchar
        </CharString>
        <CharString name="dvMatraI.a33">
          -67 callsubr
          2076 -73 callgsubr
          -2158 -92 callgsubr
        </CharString>
        <CharString name="dvMatraI.a34">
          -67 callsubr
          2122 -73 callgsubr
          -2204 -92 callgsubr
        </CharString>
        <CharString name="dvMatraI.a35">
          -67 callsubr
          2168 -73 callgsubr
          -2250 -92 callgsubr
        </CharString>
        <CharString name="dvMatraI.a36">
          -67 callsubr
          2213 -73 callgsubr
          -2295 -92 callgsubr
        </CharString>
        <CharString name="dvMatraI.a37">
          -67 callsubr
          2259 -73 callgsubr
          -2341 -92 callgsubr
        </CharString>
        <CharString name="dvMatraI.a38">
          -67 callsubr
          2304 -73 callgsubr
          -2386 -92 callgsubr
        </CharString>
        <CharString name="dvMatraI.a39">
          -67 callsubr
          2350 -73 callgsubr
          -2432 -92 callgsubr
        </CharString>
        <CharString name="dvMatraI.a40">
          -67 callsubr
          2395 -73 callgsubr
          -2477 -92 callgsubr
        </CharString>
        <CharString name="dvMatraI.a41">
          -67 callsubr
          2441 -73 callgsubr
          -2523 -92 callgsubr
        </CharString>
        <CharString name="dvMatraI.a42">
          -67 callsubr
          2487 -73 callgsubr
          -2569 -92 callgsubr
        </CharString>
        <CharString name="dvMatraI.a43">
          -67 callsubr
          2532 -73 callgsubr
          -2614 -92 callgsubr
        </CharString>
        <CharString name="dvMatraI.a44">
          -67 callsubr
          2579 -73 callgsubr
          -2661 -92 callgsubr
        </CharString>
        <CharString name="dvMatraI.a45">
          -67 callsubr
          2624 -73 callgsubr
          -2706 -92 callgsubr
        </CharString>
        <CharString name="dvMatraI.a46">
          -67 callsubr
          2670 -73 callgsubr
          -2752 -92 callgsubr
        </CharString>
        <CharString name="dvMatraI.a47">
          -67 callsubr
          2715 -73 callgsubr
          -2797 -92 callgsubr
        </CharString>
        <CharString name="dvMatraI.a48">
          -67 callsubr
          2761 -73 callgsubr
          -2843 -92 callgsubr
        </CharString>
        <CharString name="dvMatraI.a49">
          390 12 callgsubr
          105 8 callgsubr
          2806 -73 callgsubr
          -2888 -92 callgsubr
        </CharString>
        <CharString name="dvMatraI.a50">
          3231 667 rmoveto
          0 callgsubr
          -2934 hlineto
          -103 callsubr
          -116 -66 callsubr
          59 -160 105 -107 callsubr
          2852 0 callsubr
          vlineto
          endchar
        </CharString>
        <CharString name="dvNG_GA">
          161 697 313 48 callgsubr
          9 -86 hlineto
          -34 callgsubr
          -25 -59 67 -83 callgsubr
          97 162 -231 89 231 8 -47 callgsubr
          135 83 callgsubr
        </CharString>
        <CharString name="dvNG_MA">
          401 774 388 rmoveto
          -77 -75 77 hlineto
          94 -279 rmoveto
          -241 206 hlineto
          -5 callsubr
          45 vlineto
          283 callgsubr
          373 137 265 hlineto
          246 59 rmoveto
          -1134 -59 535 -78 -327 hlineto
          236 callsubr
          -67 -8 callsubr
          319 -60 callsubr
          -83 -95 callsubr
          -274 -43 callsubr
          60 -88 -71 -8 callsubr
          350 -145 86 64 241 -115 86 703 118 callsubr
        </CharString>
        <CharString name="dvNY_CA">
          854 1567 8 callsubr
          -1587 -59 1339 -392 hlineto
          -26 -8 -8 -26 vhcurveto
          -341 hlineto
          208 callsubr
          -81 -236 88 vlineto
          -18 callgsubr
          236 -102 227 callgsubr
        </CharString>
        <CharString name="dvSHA_MatraVocalicR">
          355 192 callgsubr
          695 -337 rmoveto
          509 160 59 -247 -262 -239 vlineto
          6 5 3 9 14 vvcurveto
          155 50 callgsubr
          -164 vlineto
          -53 26 -25 53 vhcurveto
          210 hlineto
          -214 -201 rlineto
          112 hlineto
          213 201 rlineto
          295 -188 -177 hlineto
          195 callgsubr
          endchar
        </CharString>
        <CharString name="dvSH_VA.aSimp">
          850 219 622 rmoveto
          -96 callsubr
          997 hmoveto
          -797 -59 549 -392 hlineto
          -26 -8 -8 -72 callgsubr
          -306 hlineto
          -103 callsubr
          102 callgsubr
        </CharString>
        <CharString name="dvTTH_TTHA">
          92 577 286 rmoveto
          -98 callsubr
          -307 -103 callgsubr
          110 -107 callsubr
          307 -60 callsubr
          -476 vmoveto
          -98 callsubr
          -308 -103 callgsubr
          110 -107 callsubr
          308 -60 callsubr
          228 533 rmoveto
          59 -825 -59 372 -78 -153 vlineto
          280 callsubr
          153 -78 -153 hlineto
          280 callsubr
          388 214 callsubr
          132 287 callsubr
          -150 78 150 214 callsubr
          132 287 callsubr
          -150 78 hlineto
          endchar
        </CharString>
        <CharString name="dvTT_GA">
          223 callsubr
          -317 -100 callsubr
          13 -86 hlineto
          -34 callgsubr
          -25 -59 64 -83 callgsubr
          97 170 -231 86 231 13 -47 callgsubr
          165 -89 -154 225 callgsubr
          295 -107 callsubr
          endchar
        </CharString>
        <CharString name="dvT_KH_NA">
          1824 1971 31 callsubr
          -2557 -59 889 136 callsubr
          183 -411 -67 callgsubr
          281 -347 87 callsubr
          1331 258 callgsubr
          -296 21 callsubr
          156 -107 callsubr
          263 59 -299 hlineto
          -53 -25 -25 -53 hvcurveto
          -178 -8 callsubr
          336 hlineto
          14 11 2 3 9 hvcurveto
          -32 9 25 -15 41 hhcurveto
          -39 callsubr
        </CharString>
        <CharString name="dvT_S_NA">
          1530 1994 248 callgsubr
          -67 -219 vlineto
          -74 callsubr
          960 hlineto
          45 callsubr
          -2263 -59 943 hlineto
          -69 callsubr
          -298 146 -426 -67 callgsubr
          296 -58 callsubr
          636 -123 26 callgsubr
        </CharString>
        <CharString name="e">
          -76 166 278 -56 callgsubr
        </CharString>
        <CharString name="eacute">
          -76 531 675 43 callsubr
          -203 -254 -56 callgsubr
        </CharString>
        <CharString name="ecaron">
          -76 361 532 -1 callgsubr
          -95 -254 -56 callgsubr
        </CharString>
        <CharString name="ecircumflex">
          -76 316 633 rmoveto
          64 callgsubr
          -166 -143 rlineto
          101 hlineto
          -35 -254 -56 callgsubr
        </CharString>
        <CharString name="edieresis">
          -76 243 615 148 callsubr
          260 83 148 callsubr
          -344 -47 rmoveto
          23 callgsubr
          306 58 callgsubr
          -231 145 callsubr
          381 144 callgsubr
          -302 -207 61 callsubr
          endchar
        </CharString>
        <CharString name="edotaccent">
          -76 375 623 rmoveto
          -107 -91 107 hlineto
          -209 -254 -56 callgsubr
        </CharString>
        <CharString name="egrave">
          -76 372 532 123 callsubr
          -118 -254 -56 callgsubr
        </CharString>
        <CharString name="eight">
          -30 169 282 callgsubr
          -180 vlineto
          -31 15 -18 26 -2 vhcurveto
          -26 -4 -15 -15 -31 vvcurveto
          -183 -100 callsubr
          325 -83 callgsubr
          183 vlineto
          31 -15 15 -25 4 vhcurveto
          25 2 15 18 31 vvcurveto
          180 -78 callsubr
          -317 -370 rmoveto
          -106 callsubr
          248 hlineto
          -69 callsubr
          -248 -103 callgsubr
          310 284 rmoveto
          -98 callsubr
          -248 -103 callgsubr
          158 -107 callsubr
          248 -60 callsubr
          endchar
        </CharString>
        <CharString name="ellipsis">
          10 60 hmoveto
          296 callgsubr
          238 -111 rmoveto
          296 callgsubr
          237 -111 rmoveto
          296 callgsubr
          endchar
        </CharString>
        <CharString name="emacron">
          -76 483 590 235 callgsubr
          -317 -254 -56 callgsubr
        </CharString>
        <CharString name="emdash">
          201 60 262 rmoveto
          774 59 -774 hlineto
          endchar
        </CharString>
        <CharString name="endash">
          -116 60 262 rmoveto
          457 59 -457 hlineto
          endchar
        </CharString>
        <CharString name="eogonek">
          -76 166 278 61 callsubr
          -303 207 rmoveto
          23 callgsubr
          118 178 callsubr
          105 58 callgsubr
          -231 145 callsubr
          381 144 callgsubr
          endchar
        </CharString>
        <CharString name="equal">
          -13 80 364 rmoveto
          520 70 -520 hlineto
          -247 vmoveto
          520 70 -520 hlineto
          endchar
        </CharString>
        <CharString name="eth">
          -311 219 59 41 callsubr
          199 -107 callsubr
          279 -230 hlineto
          -98 callsubr
          118 520 rmoveto
          -118 -33 -32 32 -34 25 -26 19 rlinecurve
          -115 hlineto
          40 -25 49 -33 42 -39 -130 -37 rcurveline
          -54 vlineto
          171 48 26 -31 21 -35 11 -37 rlinecurve
          -309 hlineto
          -103 callsubr
          -221 -100 callsubr
          324 -83 callgsubr
          239 vlineto
          70 -34 63 -43 52 vhcurveto
          78 22 rlineto
          endchar
        </CharString>
        <CharString name="exclam">
          -414 88 8 callsubr
          16 -424 rlineto
          72 hlineto
          16 424 rlineto
          -102 -622 rmoveto
          297 callgsubr
          endchar
        </CharString>
        <CharString name="exclamdown">
          -434 94 287 rmoveto
          -16 -424 rlineto
          104 hlineto
          -16 424 rlineto
          -86 198 rmoveto
          -116 99 116 vlineto
          endchar
        </CharString>
        <CharString name="f">
          -321 362 606 rmoveto
          63 -151 vlineto
          -103 callsubr
          -105 -72 -59 72 -426 86 426 144 59 -144 90 -107 callsubr
          endchar
        </CharString>
        <CharString name="fi">
          -83 520 485 rmoveto
          -292 90 8 callgsubr
          123 63 -161 hlineto
          -103 callsubr
          -105 -72 -59 72 -426 86 426 206 -426 86 vlineto
          -86 669 rmoveto
          -70 87 70 vlineto
          endchar
        </CharString>
        <CharString name="five">
          -59 180 379 rmoveto
          184 385 59 -474 -302 365 vlineto
          -99 callsubr
          -199 -95 callsubr
          -247 -103 callgsubr
          105 -88 -116 -100 callsubr
          326 -83 callgsubr
          221 228 callsubr
        </CharString>
        <CharString name="fl">
          -83 434 669 rmoveto
          -184 -206 90 -107 callsubr
          123 63 -161 hlineto
          -103 callsubr
          -105 -72 -59 72 -426 86 426 206 -426 86 669 vlineto
          endchar
        </CharString>
        <CharString name="florin">
          -245 420 603 rmoveto
          64 -105 vlineto
          -62 -22 -28 -55 -7 hvcurveto
          -13 -99 rlineto
          -106 -59 98 hlineto
          -63 -471 rlineto
          -27 -4 -3 -6 -27 hhcurveto
          -76 -63 105 hlineto
          62 22 28 55 7 hvcurveto
          65 484 rlineto
          127 59 -119 hlineto
          12 86 rlineto
          27 3 4 5 26 hhcurveto
          endchar
        </CharString>
        <CharString name="four">
          -42 631 160 rmoveto
          -117 168 -83 -168 -294 hlineto
          291 462 rlineto
          -93 hlineto
          -295 -463 rlineto
          -58 391 -101 83 101 117 vlineto
          endchar
        </CharString>
        <CharString name="fraction">
          -147 434 8 callsubr
          -411 -622 rlineto
          87 hlineto
          411 622 rlineto
          endchar
        </CharString>
        <CharString name="g">
          -76 197 59 9 callgsubr
        </CharString>
        <CharString name="gbreve">
          -76 438 532 80 callgsubr
          -4 -473 9 callgsubr
        </CharString>
        <CharString name="germandbls">
          117 316 150 rmoveto
          -71 -100 callsubr
          276 -83 callgsubr
          132 -78 callsubr
          -244 -103 callgsubr
          57 -107 callsubr
          223 hlineto
          44 25 23 43 hvcurveto
          68 -78 callsubr
          -461 hlineto
          -103 callsubr
          -543 86 529 vlineto
          26 6 6 26 vhcurveto
          385 hlineto
          26 5 -6 -26 hvcurveto
          -36 vlineto
          -22 -6 -4 -30 vhcurveto
          -210 hlineto
          -47 -28 -24 -55 hvcurveto
          -77 -100 callsubr
          243 -60 callsubr
          -112 -95 callsubr
          -204 -103 callgsubr
          61 vlineto
          endchar
        </CharString>
        <CharString name="grave">
          -262 280 649 169 callsubr
        </CharString>
        <CharString name="greater">
          -32 545 311 rmoveto
          -485 -96 rlineto
          -75 vlineto
          561 129 rlineto
          85 vlineto
          -561 128 rlineto
          -75 vlineto
          endchar
        </CharString>
        <CharString name="greaterequal">
          29 70 107 rmoveto
          592 63 -592 hlineto
          515 171 rmoveto
          -515 -76 rlineto
          -75 vlineto
          591 109 rlineto
          85 vlineto
          -591 108 rlineto
          -75 vlineto
          endchar
        </CharString>
        <CharString name="guillemotleft">
          -169 184 105 244 callgsubr
          330 -155 244 callgsubr
          endchar
        </CharString>
        <CharString name="guillemotright">
          -175 464 260 182 callgsubr
          -82 155 182 callgsubr
          endchar
        </CharString>
        <CharString name="guilsinglleft">
          -376 182 105 rmoveto
          95 hlineto
          -126 154 126 156 rlineto
          -95 hlineto
          -123 -155 rlineto
          endchar
        </CharString>
        <CharString name="guilsinglright">
          -380 259 260 182 callgsubr
          endchar
        </CharString>
        <CharString name="h">
          -65 232 485 272 callgsubr
          219 -86 -669 86 360 1 31 201 callgsubr
          220 -60 callsubr
          -395 86 406 228 callsubr
        </CharString>
        <CharString name="hungarumlaut">
          -93 466 669 rmoveto
          109 callgsubr
          -310 hmoveto
          109 callgsubr
          endchar
        </CharString>
        <CharString name="hyphen">
          -293 60 242 rmoveto
          280 59 -280 hlineto
          endchar
        </CharString>
        <CharString name="i">
          158 callsubr
          -2 584 rmoveto
          91 86 -91 hlineto
          endchar
        </CharString>
        <CharString name="iacute">
          158 callsubr
          5 532 94 callsubr
          endchar
        </CharString>
        <CharString name="icircumflex">
          158 callsubr
          -172 532 rmoveto
          101 hlineto
          115 101 64 callgsubr
          endchar
        </CharString>
        <CharString name="idieresis">
          158 callsubr
          117 615 168 callgsubr
        </CharString>
        <CharString name="igrave">
          158 callsubr
          -60 675 169 callsubr
        </CharString>
        <CharString name="imacron">
          158 callsubr
          -125 532 249 callgsubr
          endchar
        </CharString>
        <CharString name="infinity">
          258 349 207 rmoveto
          74 20 12 63 41 hvcurveto
          6 9 22 -28 rlineto
          -48 37 15 -8 61 hhcurveto
          187 hlineto
          56 23 28 48 hvcurveto
          129 vlineto
          46 -23 29 -56 vhcurveto
          -196 hlineto
          -59 -13 -12 -52 -34 hvcurveto
          -20 -30 -29 39 rlineto
          43 -32 -16 12 -57 hhcurveto
          -219 hlineto
          -55 -22 -29 -46 hvcurveto
          -129 vlineto
          -48 22 -28 55 vhcurveto
          429 197 rmoveto
          17 12 9 11 18 hhcurveto
          179 hlineto
          29 3 -10 -25 hvcurveto
          -99 vlineto
          -26 -3 -9 -29 vhcurveto
          -168 hlineto
          -22 -10 7 14 -11 hvcurveto
          -48 59 rlineto
          -105 -49 rmoveto
          -16 -11 -20 -15 -22 hhcurveto
          -199 hlineto
          -30 -3 9 26 hvcurveto
          98 vlineto
          25 3 10 30 vhcurveto
          189 hlineto
          28 10 -11 -22 16 hvcurveto
          42 -56 rlineto
          endchar
        </CharString>
        <CharString name="integral">
          -326 227 633 rmoveto
          -106 callsubr
          89 64 -128 hlineto
          -103 callsubr
          -673 vlineto
          -26 -3 -2 -5 -26 hhcurveto
          -89 -64 128 -83 callgsubr
          endchar
        </CharString>
        <CharString name="iogonek">
          -407 189 670 rmoveto
          -91 -86 91 hlineto
          -151 -757 rmoveto
          267 callgsubr
          3 485 -86 -521 136 callgsubr
        </CharString>
        <CharString name="itfLogo">
          921 1299 220 rmoveto
          294 callgsubr
          38 vmoveto
          294 callgsubr
          -232 260 callsubr
          -232 -182 rmoveto
          193 182 -193 hlineto
          -231 260 callsubr
          -232 -182 rmoveto
          294 callgsubr
          -231 260 callsubr
          endchar
        </CharString>
        <CharString name="itfStar">
          -23 660 441 rmoveto
          -258 -8 -66 243 -69 -243 -257 8 218 -139 -94 -242 202 165 201 -165 -92 242 rlineto
          endchar
        </CharString>
        <CharString name="j">
          -416 100 -51 rmoveto
          -98 callsubr
          -109 -59 148 -83 callgsubr
          547 -87 vlineto
          -2 99 rmoveto
          91 86 -91 hlineto
          endchar
        </CharString>
        <CharString name="k">
          -90 90 hmoveto
          86 669 -86 hlineto
          492 -184 231 callsubr
        </CharString>
        <CharString name="l">
          -407 186 hmoveto
          669 -86 -669 vlineto
          endchar
        </CharString>
        <CharString name="lacute">
          -407 106 716 94 callsubr
          -60 -859 rmoveto
          669 -86 -669 vlineto
          endchar
        </CharString>
        <CharString name="lcaron">
          -407 100 669 rmoveto
          -669 86 669 vlineto
          96 -1 rmoveto
          259 callsubr
          endchar
        </CharString>
        <CharString name="less">
          -32 601 407 rmoveto
          75 vlineto
          -561 -128 rlineto
          -85 vlineto
          561 -129 rlineto
          75 vlineto
          -485 96 rlineto
          endchar
        </CharString>
        <CharString name="lessequal">
          29 652 170 rmoveto
          -592 -63 592 hlineto
          310 vmoveto
          75 vlineto
          -591 -108 rlineto
          -85 vlineto
          591 -109 rlineto
          75 vlineto
          -515 76 rlineto
          endchar
        </CharString>
        <CharString name="logicalnot">
          52 685 396 rmoveto
          -625 -78 559 -149 66 hlineto
          endchar
        </CharString>
        <CharString name="lozenge">
          24 662 313 rmoveto
          -271 309 rlineto
          -76 hlineto
          -260 -309 260 -313 rlineto
          76 hlineto
          172 313 rmoveto
          -209 -247 -199 247 199 244 rlineto
          endchar
        </CharString>
        <CharString name="lslash">
          -407 304 425 rmoveto
          -118 -39 rlineto
          283 -86 -312 vlineto
          -113 -38 rlineto
          -61 vlineto
          113 38 rlineto
          -296 86 325 vlineto
          118 40 rlineto
          endchar
        </CharString>
        <CharString name="m">
          271 593 485 rmoveto
          -32 -23 -12 -29 -7 hvcurveto
          28 -11 -24 13 -38 hhcurveto
          -227 hlineto
          -27 -19 -9 -23 -9 hvcurveto
          32 -86 -485 86 391 201 callgsubr
          210 -60 callsubr
          -395 86 390 vlineto
          26 10 10 25 vhcurveto
          195 -60 callsubr
          -395 86 406 228 callsubr
        </CharString>
        <CharString name="macron">
          -93 126 550 249 callgsubr
          endchar
        </CharString>
        <CharString name="minus">
          291 callsubr
          endchar
        </CharString>
        <CharString name="multiply">
          -36 573 440 rmoveto
          -46 59 -198 -137 -199 137 -46 -59 179 -123 -174 -120 45 -59 194 134 194 -134 46 59 -174 120 rlineto
          endchar
        </CharString>
        <CharString name="n">
          -66 232 485 20 callgsubr
        </CharString>
        <CharString name="nacute">
          -66 570 675 43 callsubr
          -176 -47 20 callgsubr
        </CharString>
        <CharString name="ncaron">
          -66 380 532 -1 callgsubr
          -48 -47 20 callgsubr
        </CharString>
        <CharString name="nine">
          -36 204 318 41 callsubr
          183 -107 callsubr
          244 -60 callsubr
          -214 vlineto
          -315 304 rmoveto
          -103 callsubr
          -205 -100 callsubr
          315 -169 hlineto
          -98 callsubr
          -240 -103 callgsubr
          95 -87 -106 -100 callsubr
          319 276 callsubr
          endchar
        </CharString>
        <CharString name="notequal">
          -14 599 363 rmoveto
          66 -129 vlineto
          62 75 rlineto
          -71 hlineto
          -62 -75 rlineto
          -319 -66 265 hlineto
          -80 -97 rlineto
          -185 -66 131 hlineto
          -68 -82 rlineto
          71 hlineto
          68 82 rlineto
          317 66 -263 hlineto
          80 97 rlineto
          endchar
        </CharString>
        <CharString name="ntilde">
          -66 188 588 rmoveto
          15 5 8 12 vhcurveto
          -6 callgsubr
          vlineto
          44 -47 20 callgsubr
        </CharString>
        <CharString name="numbersign">
          255 590 226 rmoveto
          -271 hlineto
          57 170 rlineto
          271 hlineto
          241 hmoveto
          63 -144 vlineto
          54 163 rlineto
          -77 hlineto
          -54 -163 rlineto
          -271 hlineto
          54 163 rlineto
          -77 hlineto
          -54 -163 rlineto
          -215 -63 195 hlineto
          -57 -170 rlineto
          -182 -63 162 292 callsubr
          271 292 callsubr
          197 63 -177 hlineto
          57 170 rlineto
          endchar
        </CharString>
        <CharString name="o">
          -73 455 90 -33 callsubr
        </CharString>
        <CharString name="oacute">
          -73 530 675 43 callsubr
          87 -442 -33 callsubr
        </CharString>
        <CharString name="ocircumflex">
          -73 311 633 rmoveto
          64 callgsubr
          -166 -143 rlineto
          101 hlineto
          259 -442 -33 callsubr
        </CharString>
        <CharString name="odieresis">
          -73 159 485 rmoveto
          23 callgsubr
          302 79 callsubr
          -6 -90 rmoveto
          -305 vlineto
          96 callgsubr
          hlineto
          -101 callgsubr
          228 -60 callsubr
          -333 220 205 callsubr
        </CharString>
        <CharString name="oe">
          264 527 278 139 callsubr
          213 -60 callsubr
          -117 vlineto
          -361 -189 rmoveto
          -23 -11 -7 -22 vhcurveto
          -210 hlineto
          -101 callgsubr
          210 hlineto
          22 11 -8 -22 hvcurveto
          102 89 rmoveto
          285 callgsubr
          -258 hlineto
          23 callgsubr
          258 hlineto
          39 20 19 19 5 hvcurveto
          -19 6 20 -19 35 hhcurveto
          264 -83 callgsubr
          58 -86 -47 -95 callsubr
          -210 145 callsubr
          360 144 callgsubr
          endchar
        </CharString>
        <CharString name="ogonek">
          -93 269 257 callsubr
          100 -83 -47 136 callgsubr
        </CharString>
        <CharString name="ograve">
          -73 361 532 123 callsubr
          182 -442 -33 callsubr
        </CharString>
        <CharString name="ohungarumlaut">
          -73 159 485 rmoveto
          23 callgsubr
          302 79 callsubr
          -6 -90 rmoveto
          -305 vlineto
          96 callgsubr
          hlineto
          -101 callgsubr
          228 -60 callsubr
          -130 300 rmoveto
          109 callgsubr
          110 hmoveto
          109 callgsubr
          endchar
        </CharString>
        <CharString name="omacron">
          -73 480 590 235 callgsubr
          -25 -442 -33 callsubr
        </CharString>
        <CharString name="one">
          -359 244 8 callsubr
          -214 -59 126 -563 88 hlineto
          endchar
        </CharString>
        <CharString name="onesuperior">
          -452 171 8 callsubr
          -141 -42 81 -300 60 hlineto
          endchar
        </CharString>
        <CharString name="ordfeminine">
          -266 143 323 rmoveto
          -19 -4 4 18 hvcurveto
          213 vlineto
          19 4 3 19 vhcurveto
          128 hlineto
          17 8 -7 -18 hvcurveto
          -208 vlineto
          -18 -8 -6 -17 vhcurveto
          25 299 rmoveto
          -25 vlineto
          18 -6 -14 7 -20 hhcurveto
          -140 hlineto
          -38 -18 -18 -38 hvcurveto
          -230 vlineto
          -38 18 -18 38 vhcurveto
          140 hlineto
          20 14 7 18 6 hvcurveto
          -25 61 342 vlineto
          endchar
        </CharString>
        <CharString name="ordmasculine">
          -263 360 567 rmoveto
          37 -19 18 -36 vhcurveto
          -180 hlineto
          -37 -18 -18 -37 hvcurveto
          -232 vlineto
          -37 18 -18 37 vhcurveto
          180 hlineto
          36 19 18 37 hvcurveto
          -60 9 rmoveto
          -18 -4 -4 -18 vhcurveto
          -127 hlineto
          -19 -3 4 18 hvcurveto
          215 vlineto
          18 3 3 19 vhcurveto
          127 hlineto
          18 4 -3 -18 hvcurveto
          endchar
        </CharString>
        <CharString name="oslash">
          -53 468 86 rmoveto
          -27 -5 -5 -27 vhcurveto
          -229 hlineto
          261 327 rlineto
          -295 19 rmoveto
          26 5 5 27 vhcurveto
          231 hlineto
          8 hlineto
          -271 -339 rlineto
          396 415 rmoveto
          -64 hlineto
          -18 -23 rlineto
          1 -5 -5 0 -6 hhcurveto
          -302 hlineto
          -103 callsubr
          -327 vlineto
          -29 8 -20 15 -13 vhcurveto
          -31 -39 rlineto
          64 hlineto
          18 22 rlineto
          5 hlineto
          302 271 callgsubr
          24 -6 19 -11 13 vhcurveto
          endchar
        </CharString>
        <CharString name="otilde">
          -73 183 588 rmoveto
          15 5 8 12 vhcurveto
          -6 callgsubr
          vlineto
          272 -442 -33 callsubr
        </CharString>
        <CharString name="p">
          -56 471 212 callsubr
          -230 hlineto
          -24 -10 9 26 hvcurveto
          297 201 callgsubr
          230 -60 callsubr
          -240 90 rmoveto
          -27 -19 -9 -23 -9 hvcurveto
          32 -86 -626 86 173 vlineto
          -23 9 19 -9 27 hhcurveto
          247 265 callsubr
        </CharString>
        <CharString name="paragraph">
          41 421 8 callsubr
          -262 hlineto
          -103 callsubr
          -237 -100 callsubr
          180 -368 82 hlineto
          131 763 rmoveto
          -763 82 763 vlineto
          endchar
        </CharString>
        <CharString name="parenleft">
          -357 100 156 rmoveto
          -276 100 -99 152 vhcurveto
          34 59 -30 hlineto
          -110 7 -60 95 208 vvcurveto
          198 vlineto
          207 60 96 110 7 vhcurveto
          30 59 -34 hlineto
          -152 -100 -99 -276 hvcurveto
          endchar
        </CharString>
        <CharString name="parenright">
          -357 236 342 rmoveto
          276 -100 99 -152 vhcurveto
          -34 -59 30 hlineto
          110 -7 60 -96 -207 vvcurveto
          -198 vlineto
          -208 -60 -95 -110 -7 vhcurveto
          -30 -59 34 hlineto
          152 100 99 276 hvcurveto
          endchar
        </CharString>
        <CharString name="percent">
          382 1015 262 -16 callsubr
          -217 372 rmoveto
          -466 -622 rlineto
          81 hlineto
          467 622 rlineto
          -398 -70 -16 callsubr
          endchar
        </CharString>
        <CharString name="period">
          -474 60 hmoveto
          297 callgsubr
          endchar
        </CharString>
        <CharString name="periodcentered">
          -434 80 257 rmoveto
          297 callgsubr
          endchar
        </CharString>
        <CharString name="perthousand">
          834 1015 262 -16 callsubr
          -217 372 rmoveto
          -466 -622 rlineto
          81 hlineto
          467 622 rlineto
          -398 -70 -16 callsubr
          1125 -278 -16 callsubr
          endchar
        </CharString>
        <CharString name="pi">
          156 789 485 rmoveto
          -709 -59 112 -331 hlineto
          -98 callsubr
          -81 -64 119 -83 callgsubr
          347 303 -426 85 426 123 vlineto
          endchar
        </CharString>
        <CharString name="plus">
          -53 580 345 rmoveto
          -217 159 -86 -159 -217 -68 217 -159 86 159 217 hlineto
          endchar
        </CharString>
        <CharString name="plusminus">
          -13 80 118 rmoveto
          520 64 -520 hlineto
          302 202 rmoveto
          120 -84 -120 -218 -66 218 -96 84 96 218 66 vlineto
          endchar
        </CharString>
        <CharString name="product">
          62 172 8 callsubr
          -527 -95 callsubr
          -101 -64 139 -83 callgsubr
          484 312 -563 85 622 vlineto
          endchar
        </CharString>
        <CharString name="q">
          -63 232 59 15 callgsubr
          230 hlineto
          24 10 -9 -26 hvcurveto
          -297 214 callgsubr
          34 426 rmoveto
          -32 vlineto
          23 -9 -19 9 -27 hhcurveto
          -247 hlineto
          23 callgsubr
          247 hlineto
          88 callsubr
          -173 86 626 vlineto
          endchar
        </CharString>
        <CharString name="question">
          -118 217 hmoveto
          297 callgsubr
          -108 506 rmoveto
          -56 -23 -30 -47 hvcurveto
          -110 87 96 vlineto
          24 3 9 26 vhcurveto
          254 hlineto
          25 3 -9 -24 hvcurveto
          -174 vlineto
          -24 -3 -8 -25 vhcurveto
          -176 hlineto
          7 -127 rlineto
          72 hlineto
          4 67 rlineto
          129 hlineto
          55 24 31 47 hvcurveto
          202 vlineto
          47 -24 30 -55 vhcurveto
          endchar
        </CharString>
        <CharString name="questiondown">
          -78 388 484 rmoveto
          -99 -116 99 hlineto
          100 -319 rmoveto
          -96 vlineto
          -24 -3 -9 -26 vhcurveto
          -254 hlineto
          -25 -3 9 24 hvcurveto
          174 vlineto
          24 3 8 25 vhcurveto
          176 hlineto
          -7 127 rlineto
          -72 hlineto
          -4 -67 rlineto
          -129 hlineto
          -55 -24 -31 -47 hvcurveto
          -202 vlineto
          -47 24 -30 55 vhcurveto
          327 hlineto
          56 23 30 47 hvcurveto
          110 vlineto
          endchar
        </CharString>
        <CharString name="quotedbl">
          -357 60 8 callsubr
          -218 79 218 vlineto
          58 hmoveto
          -218 79 218 vlineto
          endchar
        </CharString>
        <CharString name="quotedblbase">
          -335 209 -135 174 callgsubr
          -149 -253 174 callgsubr
          endchar
        </CharString>
        <CharString name="quotedblleft">
          -335 277 callgsubr
          149 253 rmoveto
          -32 hlineto
          -67 -193 rlineto
          -60 99 vlineto
          endchar
        </CharString>
        <CharString name="quotedblright">
          -335 209 369 174 callgsubr
          -149 -253 174 callgsubr
          endchar
        </CharString>
        <CharString name="quoteleft">
          -484 277 callgsubr
          endchar
        </CharString>
        <CharString name="quoteright">
          -484 60 369 174 callgsubr
          endchar
        </CharString>
        <CharString name="quotesinglbase">
          -484 60 -135 174 callgsubr
          endchar
        </CharString>
        <CharString name="quotesingle">
          -489 60 8 callsubr
          -218 84 218 vlineto
          endchar
        </CharString>
        <CharString name="r">
          -325 254 485 rmoveto
          -43 -26 -26 -35 -9 hvcurveto
          61 -86 -485 86 349 vlineto
          50 20 25 45 vhcurveto
          117 61 hlineto
          endchar
        </CharString>
        <CharString name="racute">
          -325 460 676 43 callsubr
          -122 210 callgsubr
        </CharString>
        <CharString name="rcaron">
          -325 282 533 -1 callgsubr
          -6 210 callgsubr
        </CharString>
        <CharString name="registered">
          -82 551 527 rmoveto
          101 -36 54 -89 vhcurveto
          -241 hlineto
          -89 -36 -54 -101 hvcurveto
          -39 vlineto
          -101 36 -50 89 vhcurveto
          241 hlineto
          89 36 50 101 hvcurveto
          -362 -108 rmoveto
          -58 -17 45 62 hvcurveto
          41 vlineto
          62 17 52 58 vhcurveto
          234 hlineto
          58 17 -52 -62 hvcurveto
          -41 vlineto
          -62 -17 -45 -58 vhcurveto
          -211 229 rmoveto
          -196 47 72 42 vlineto
          47 -72 rlineto
          52 hlineto
          -48 73 rlineto
          8 hlineto
          23 8 16 18 hvcurveto
          56 vlineto
          22 -12 11 -23 vhcurveto
          -13 -74 rmoveto
          -8 -3 -3 -8 vhcurveto
          -72 49 72 hlineto
          8 3 -3 -8 hvcurveto
          endchar
        </CharString>
        <CharString name="ring">
          -93 454 611 118 callgsubr
          endchar
        </CharString>
        <CharString name="s">
          -117 421 89 74 callgsubr
        </CharString>
        <CharString name="sacute">
          -117 270 532 94 callsubr
          11 66 callgsubr
        </CharString>
        <CharString name="scaron">
          -117 250 532 rmoveto
          100 hlineto
          166 143 rlineto
          -101 hlineto
          -115 -101 -115 101 rlineto
          -101 hlineto
          337 66 callgsubr
        </CharString>
        <CharString name="section">
          -83 480 203 rmoveto
          35 7 15 32 46 vvcurveto
          86 -78 callsubr
          -217 -103 callgsubr
          92 -107 callsubr
          178 -60 callsubr
          -40 87 51 -78 callsubr
          -256 hlineto
          -103 callsubr
          -114 vlineto
          -21 7 -14 7 -10 vhcurveto
          -35 -9 -15 -32 -45 vvcurveto
          -85 -100 callsubr
          217 hlineto
          25 -86 callgsubr
          -92 vlineto
          -26 -5 -5 -25 vhcurveto
          -178 -103 callgsubr
          40 -87 -51 -100 callsubr
          255 -83 callgsubr
          113 vlineto
          20 -6 15 -7 11 vhcurveto
          -68 191 rmoveto
          -99 callsubr
          -95 -95 callsubr
          -214 -103 callgsubr
          95 -107 callsubr
          endchar
        </CharString>
        <CharString name="semicolon">
          -484 60 369 rmoveto
          297 callgsubr
          -622 vmoveto
          33 hlineto
          66 193 rlineto
          62 -99 vlineto
          endchar
        </CharString>
        <CharString name="seven">
          -179 494 8 callsubr
          -454 -59 356 hlineto
          -268 -563 rlineto
          93 hlineto
          273 571 rlineto
          endchar
        </CharString>
        <CharString name="six">
          -41 485 212 callsubr
          -245 -103 callgsubr
          205 276 vlineto
          -99 callsubr
          -307 90 rmoveto
          178 -107 callsubr
          243 182 callsubr
          86 116 -78 callsubr
          -321 hlineto
          6 callgsubr
          324 -83 callgsubr
          196 228 callsubr
        </CharString>
        <CharString name="slash">
          -307 247 callgsubr
        </CharString>
        <CharString name="space">
          -419 endchar
        </CharString>
        <CharString name="sterling">
          0 220 65 rmoveto
          24 16 4 31 60 vvcurveto
          101 295 59 -295 200 -107 callsubr
          222 -60 callsubr
          -94 87 105 -78 callsubr
          -301 hlineto
          -103 callsubr
          -211 -90 -59 90 -108 vlineto
          -68 -26 -35 -54 vhcurveto
          -62 553 65 vlineto
          endchar
        </CharString>
        <CharString name="t">
          -327 326 426 189 callgsubr
        </CharString>
        <CharString name="tcaron">
          -327 204 569 rmoveto
          -86 -84 -78 -59 78 -347 hlineto
          -105 callgsubr
          128 64 -90 -103 callgsubr
          331 122 59 -122 vlineto
          58 238 rmoveto
          259 callsubr
          endchar
        </CharString>
        <CharString name="thorn">
          -67 460 100 rmoveto
          -98 callsubr
          -219 hlineto
          -24 -10 9 26 hvcurveto
          296 252 callsubr
          -27 -19 -9 -23 -9 hvcurveto
          207 -86 -810 86 183 vlineto
          -23 9 19 -9 27 hhcurveto
          236 -83 callgsubr
          326 228 callsubr
        </CharString>
        <CharString name="three">
          -37 167 532 rmoveto
          -106 callsubr
          260 -60 callsubr
          -156 -95 callsubr
          -186 -60 186 -60 callsubr
          -164 -95 callsubr
          -260 -103 callgsubr
          102 -87 -113 -100 callsubr
          19 callsubr
          187 vlineto
          31 -15 15 -26 4 vhcurveto
          26 2 15 18 31 vvcurveto
          176 -78 callsubr
          -338 hlineto
          -103 callsubr
          -114 87 vlineto
          endchar
        </CharString>
        <CharString name="threesuperior">
          -284 128 563 rmoveto
          14 3 3 14 vhcurveto
          118 hlineto
          14 3 -3 -14 hvcurveto
          -71 vlineto
          -14 -3 -3 -14 vhcurveto
          -105 -43 105 hlineto
          14 3 -3 -14 hvcurveto
          -75 vlineto
          -15 -3 -3 -14 vhcurveto
          -118 hlineto
          -14 -3 3 15 hvcurveto
          46 -58 -63 vlineto
          -29 15 -14 29 vhcurveto
          181 hlineto
          29 15 14 29 hvcurveto
          103 vlineto
          18 -9 8 -14 2 vhcurveto
          14 1 9 10 17 vvcurveto
          97 vlineto
          29 -15 14 -29 vhcurveto
          -181 hlineto
          -29 -15 -14 -29 hvcurveto
          -63 58 vlineto
          endchar
        </CharString>
        <CharString name="tilde">
          -93 185 599 rmoveto
          -6 callgsubr
          56 vlineto
          15 5 8 12 vhcurveto
          endchar
        </CharString>
        <CharString name="trademark">
          263 20 562 rmoveto
          141 -265 78 265 141 60 -360 hlineto
          780 hmoveto
          -129 -208 -125 208 rlineto
          -95 -325 72 240 hlineto
          114 -191 rlineto
          69 hlineto
          118 190 rlineto
          -239 72 325 vlineto
          endchar
        </CharString>
        <CharString name="two">
          -75 147 532 rmoveto
          -106 callsubr
          257 -60 callsubr
          -30 vlineto
          -61 -22 -32 -42 -39 vhcurveto
          -341 -312 rlineto
          -58 497 59 -377 vlineto
          312 286 rlineto
          53 49 8 33 71 vvcurveto
          45 277 callsubr
          -133 87 vlineto
          endchar
        </CharString>
        <CharString name="twosuperior">
          -313 127 563 rmoveto
          14 3 3 14 vhcurveto
          111 hlineto
          14 3 -3 -14 hvcurveto
          -20 vlineto
          -36 -13 -22 -21 -18 vhcurveto
          -167 -143 rlineto
          -44 256 45 -183 vlineto
          143 117 rlineto
          28 23 15 30 46 vvcurveto
          38 vlineto
          29 -14 14 -29 vhcurveto
          -174 hlineto
          -29 -14 -14 -29 hvcurveto
          -68 57 vlineto
          endchar
        </CharString>
        <CharString name="u">
          -66 451 485 -29 callgsubr
        </CharString>
        <CharString name="uacute">
          -66 519 675 43 callsubr
          94 -47 -29 callgsubr
        </CharString>
        <CharString name="ucircumflex">
          -66 307 633 rmoveto
          64 callgsubr
          -166 -143 rlineto
          101 hlineto
          259 -47 -29 callgsubr
        </CharString>
        <CharString name="udieresis">
          -66 500 615 148 callsubr
          -260 83 148 callsubr
          211 -47 -29 callgsubr
        </CharString>
        <CharString name="ugrave">
          -66 372 532 123 callsubr
          167 -47 -29 callgsubr
        </CharString>
        <CharString name="uhungarumlaut">
          -66 454 533 rmoveto
          172 163 rlineto
          -100 hlineto
          -150 -163 rlineto
          40 163 rmoveto
          -100 hlineto
          -150 -163 rlineto
          78 hlineto
          207 -48 -29 callgsubr
        </CharString>
        <CharString name="umacron">
          -66 480 591 235 callgsubr
          -29 -48 -29 callgsubr
        </CharString>
        <CharString name="underscore">
          -120 -59 vmoveto
          573 59 -573 hlineto
          endchar
        </CharString>
        <CharString name="uni00AD">
          -372 55 261 rmoveto
          210 58 -210 hlineto
          endchar
        </CharString>
        <CharString name="uni00B5">
          -56 461 485 rmoveto
          -391 214 callgsubr
          -220 7 callgsubr
          -86 -626 86 141 230 vlineto
          88 callsubr
          -32 86 485 vlineto
          endchar
        </CharString>
        <CharString name="uni0122">
          -28 282 -219 35 callsubr
          303 484 27 callsubr
        </CharString>
        <CharString name="uni0123">
          -76 388 700 rmoveto
          -32 hlineto
          -64 -125 rlineto
          -44 96 vlineto
          -191 -472 9 callgsubr
        </CharString>
        <CharString name="uni0136">
          -26 100 8 callsubr
          -622 86 622 vlineto
          337 hmoveto
          238 callsubr
          -329 -841 155 callsubr
        </CharString>
        <CharString name="uni0137">
          -90 90 hmoveto
          86 669 -86 hlineto
          162 -888 35 callsubr
          330 535 231 callsubr
        </CharString>
        <CharString name="uni013B">
          -154 255 -219 35 callsubr
          -68 109 206 callgsubr
        </CharString>
        <CharString name="uni013C">
          -407 186 hmoveto
          669 -86 -669 vlineto
          -6 -219 155 callsubr
        </CharString>
        <CharString name="uni0145">
          125 callsubr
          -307 -841 155 callsubr
        </CharString>
        <CharString name="uni0146">
          -66 269 -219 35 callsubr
          -37 535 20 callgsubr
        </CharString>
        <CharString name="uni0156">
          -6 292 -219 35 callsubr
          -105 613 rmoveto
          303 -60 callsubr
          -219 -95 callsubr
          -303 hlineto
          282 -59 rmoveto
          59 190 callsubr
          -78 callsubr
          -428 -622 87 223 193 hlineto
          139 -223 rlineto
          90 hlineto
          endchar
        </CharString>
        <CharString name="uni0157">
          -325 83 -219 35 callsubr
          171 535 rmoveto
          -43 -26 -26 -35 -9 hvcurveto
          61 -86 -485 86 349 vlineto
          50 20 25 45 vhcurveto
          117 61 hlineto
          endchar
        </CharString>
        <CharString name="uni015E">
          -45 481 90 -45 callgsubr
          -209 -472 155 callsubr
        </CharString>
        <CharString name="uni015F">
          -117 421 89 -44 callgsubr
          -183 -400 155 callsubr
        </CharString>
        <CharString name="uni0162">
          -128 232 -219 35 callsubr
          -222 200 callgsubr
        </CharString>
        <CharString name="uni0163">
          -128 233 -219 35 callsubr
          -223 200 callgsubr
        </CharString>
        <CharString name="uni0218">
          -45 481 90 -45 callgsubr
          -208 -472 155 callsubr
        </CharString>
        <CharString name="uni0219">
          -117 421 89 -44 callgsubr
          -179 -400 155 callsubr
        </CharString>
        <CharString name="uni021A">
          -128 236 -219 35 callsubr
          -226 200 callgsubr
        </CharString>
        <CharString name="uni021B">
          -327 125 -219 35 callsubr
          201 476 189 callgsubr
        </CharString>
        <CharString name="uni02C9">
          -262 82 550 rmoveto
          267 58 -267 hlineto
          endchar
        </CharString>
        <CharString name="uni0901">
          -693 -262 685 rmoveto
          241 callgsubr
          -83 13 callsubr
          114 117 249 callsubr
        </CharString>
        <CharString name="uni0902">
          -693 -231 687 249 callsubr
        </CharString>
        <CharString name="uni0902.aMatraI">
          -693 89 687 249 callsubr
        </CharString>
        <CharString name="uni0903">
          -292 170 440 rmoveto
          91 93 -91 hlineto
          -415 vmoveto
          91 93 -91 hlineto
          endchar
        </CharString>
        <CharString name="uni0905">
          371 1084 8 callsubr
          -249 -50 callsubr
          160 vlineto
          endchar
        </CharString>
        <CharString name="uni0906">
          720 1433 8 callsubr
          -598 -50 callsubr
          260 185 callsubr
        </CharString>
        <CharString name="uni0907">
          63 647 99 callgsubr
          129 59 -796 32 callsubr
          endchar
        </CharString>
        <CharString name="uni0908">
          65 649 99 callgsubr
          129 59 -183 106 vlineto
          25 -102 callsubr
          121 59 -162 162 callsubr
          -117 -524 32 callsubr
          endchar
        </CharString>
        <CharString name="uni09080902">
          65 649 99 callgsubr
          129 59 -218 138 191 callsubr
          173 59 -222 288 callsubr
          -155 -488 32 callsubr
          502 234 rmoveto
          93 -91 -93 vlineto
          endchar
        </CharString>
        <CharString name="uni0909">
          30 743 8 callsubr
          -763 -59 483 53 callgsubr
          213 vlineto
          31 -15 16 -26 2 vhcurveto
          2 vlineto
          26 2 15 16 32 vvcurveto
          143 vlineto
          14 -3 8 -6 5 vhcurveto
          169 hlineto
          endchar
        </CharString>
        <CharString name="uni090A">
          362 1075 8 callsubr
          -1094 -59 483 53 callgsubr
          201 279 vlineto
          -99 callsubr
          -159 -95 callsubr
          -233 -59 274 -83 callgsubr
          181 -78 callsubr
          -350 hlineto
          1 -3 -4 1 -4 hhcurveto
          2 vlineto
          26 2 15 16 32 vvcurveto
          143 vlineto
          14 -3 8 -6 5 vhcurveto
          500 hlineto
          endchar
        </CharString>
        <CharString name="uni090B">
          73 callsubr
          486 hlineto
          23 6 -3 -25 hvcurveto
          -83 vlineto
          -24 -3 -8 -25 vhcurveto
          -222 hlineto
          -25 -4 7 24 hvcurveto
          48 -87 -60 vlineto
          -45 22 -33 48 vhcurveto
          304 hlineto
          56 23 29 49 hvcurveto
          103 vlineto
          37 -12 13 -21 8 vhcurveto
          5 vlineto
          23 7 11 18 55 vvcurveto
          83 209 callsubr
        </CharString>
        <CharString name="uni090C">
          449 1002 34 rmoveto
          529 160 59 -1182 -59 933 -78 -304 vlineto
          -29 -11 -13 -20 -6 hvcurveto
          -4 hlineto
          -102 callgsubr
          277 -333 -235 288 callsubr
          -121 229 callsubr
          353 59 -305 hlineto
          171 callsubr
          endchar
        </CharString>
        <CharString name="uni090D">
          100 569 685 rmoveto
          53 25 25 53 hvcurveto
          89 -83 13 callsubr
          565 -63 rmoveto
          -833 39 callsubr
        </CharString>
        <CharString name="uni090E">
          100 813 8 callsubr
          -135 77 callsubr
          -609 -59 160 -484 vlineto
          51 callsubr
        </CharString>
        <CharString name="uni090F">
          100 813 8 callsubr
          -833 39 callsubr
        </CharString>
        <CharString name="uni0910">
          100 813 8 callsubr
          -139 153 callgsubr
          -604 39 callsubr
        </CharString>
        <CharString name="uni0911">
          710 1211 685 rmoveto
          53 25 25 53 hvcurveto
          89 -83 13 callsubr
          533 -63 rmoveto
          -588 -50 callsubr
          250 185 callsubr
        </CharString>
        <CharString name="uni0912">
          710 1423 12 callgsubr
          77 callsubr
          -339 -270 -262 4 vlineto
          -60 callgsubr
          250 185 callsubr
        </CharString>
        <CharString name="uni0913">
          711 1424 12 callgsubr
          153 callgsubr
          -339 -50 callsubr
          251 185 callsubr
        </CharString>
        <CharString name="uni0914">
          770 1483 8 callsubr
          -161 92 callsubr
          -330 -50 callsubr
          250 185 callsubr
        </CharString>
        <CharString name="uni0915">
          389 1102 302 callsubr
          -1122 -59 517 -392 vlineto
          -94 callsubr
          -103 callsubr
          -42 callsubr
        </CharString>
        <CharString name="uni0915093C">
          389 180 -79 11 callgsubr
          922 550 rmoveto
          59 -1122 -59 517 -392 vlineto
          -94 callsubr
          -103 callsubr
          -42 callsubr
        </CharString>
        <CharString name="uni0915093C094D">
          52 128 -79 11 callgsubr
          489 472 299 callgsubr
          59 -885 -59 517 -392 vlineto
          -94 callsubr
          -103 callsubr
          -96 callgsubr
          -86 callsubr
          284 59 hlineto
          endchar
        </CharString>
        <CharString name="uni0915093C094D0915093C">
          1137 128 -79 11 callgsubr
          800 -92 11 callgsubr
          317 158 rmoveto
          -94 callsubr
          -9 -8 -1 -1 -7 hvcurveto
          2 -286 vlineto
          -58 callgsubr
          660 vlineto
          605 hmoveto
          59 -1870 -59 517 -392 vlineto
          -94 callsubr
          -103 callsubr
          -96 callgsubr
          -86 callsubr
          230 hlineto
          -1 -6 0 -7 -7 vvcurveto
          -42 callsubr
        </CharString>
        <CharString name="uni0915093C094D0924">
          822 128 -79 11 callgsubr
          1158 472 rmoveto
          -379 hlineto
          -4 120 callgsubr
          701 283 callsubr
          -1555 -59 517 -392 hlineto
          -94 callsubr
          -103 callsubr
          -96 callgsubr
          -86 callsubr
          210 hlineto
          -1 -6 0 -7 -7 vvcurveto
          -327 -56 callsubr
        </CharString>
        <CharString name="uni0915093C094D092B">
          1189 128 -79 11 callgsubr
          1162 158 -52 callgsubr
          395 337 vlineto
          -673 -78 299 callgsubr
          -78 vlineto
          1038 78 rmoveto
          59 -1923 -59 517 -392 vlineto
          -94 callsubr
          -103 callsubr
          -96 callgsubr
          -86 callsubr
          246 -269 hlineto
          -53 26 -26 53 vhcurveto
          314 hlineto
          14 11 3 6 7 hvcurveto
          -87 -85 callgsubr
        </CharString>
        <CharString name="uni0915093C094D092B093C">
          1189 128 -79 11 callgsubr
          772 -92 11 callgsubr
          390 158 -52 callgsubr
          395 337 vlineto
          -673 -78 299 callgsubr
          -78 vlineto
          1038 78 rmoveto
          59 -1923 -59 517 -392 vlineto
          -94 callsubr
          -103 callsubr
          -96 callgsubr
          -86 callsubr
          246 -269 hlineto
          -53 26 -26 53 vhcurveto
          314 hlineto
          14 11 3 6 7 hvcurveto
          -87 -85 callgsubr
        </CharString>
        <CharString name="uni0915093C094D092C">
          869 128 -79 11 callgsubr
          819 413 rmoveto
          345 59 -383 hlineto
          -6 120 callgsubr
          748 -251 vlineto
          -89 8 -49 0 vhcurveto
          -394 -37 22 callsubr
          283 485 rmoveto
          -1602 -59 517 -392 hlineto
          -94 callsubr
          -103 callsubr
          -96 callgsubr
          -86 callsubr
          212 188 callsubr
        </CharString>
        <CharString name="uni0915093C094D092E">
          1088 128 -79 11 callgsubr
          1424 472 -76 callsubr
          59 vmoveto
          -616 hlineto
          -58 callgsubr
          648 vlineto
          568 59 rmoveto
          -1821 -59 517 -392 hlineto
          -94 callsubr
          -103 callsubr
          -96 callgsubr
          -86 callsubr
          200 hlineto
          -1 -6 0 -7 -7 vvcurveto
          4 callsubr
        </CharString>
        <CharString name="uni0915093C094D0930">
          389 354 -227 11 callgsubr
          748 698 rmoveto
          59 -1122 -59 517 -392 vlineto
          -94 callsubr
          -103 callsubr
          -96 callgsubr
          219 hlineto
          -105 -143 rlineto
          98 -17 callsubr
        </CharString>
        <CharString name="uni0915093C094D0930094D">
          48 354 -227 11 callgsubr
          263 620 116 callsubr
          176 59 -781 -59 517 -392 vlineto
          -94 callsubr
          -103 callsubr
          -96 callgsubr
          215 hlineto
          -105 -143 rlineto
          102 268 callgsubr
          288 59 hlineto
          endchar
        </CharString>
        <CharString name="uni0915094D">
          52 617 485 299 callgsubr
          59 -885 -59 517 -392 vlineto
          -94 callsubr
          -103 callsubr
          -96 callgsubr
          -86 callsubr
          284 59 hlineto
          endchar
        </CharString>
        <CharString name="uni0915094D0915">
          1119 1227 171 rmoveto
          -94 callsubr
          -6 120 callgsubr
          642 vlineto
          605 hmoveto
          59 -1852 -59 517 -392 vlineto
          -94 callsubr
          -103 callsubr
          -96 callgsubr
          -86 callsubr
          212 hlineto
          -1 -6 0 -7 -7 vvcurveto
          -42 callsubr
        </CharString>
        <CharString name="uni0915094D0916">
          1432 1213 333 rmoveto
          96 callgsubr
          183 -337 hlineto
          -58 callgsubr
          628 vlineto
          932 59 rmoveto
          -2165 -59 517 -392 hlineto
          -94 callsubr
          -103 callsubr
          -96 callgsubr
          -86 callsubr
          246 -347 hlineto
          -65 callsubr
        </CharString>
        <CharString name="uni0915094D091A">
          890 1355 171 rmoveto
          59 callsubr
          -535 hlineto
          -58 callgsubr
          770 vlineto
          146 callgsubr
          -1623 -59 517 -392 hlineto
          -94 callsubr
          -103 callsubr
          -96 callgsubr
          -86 callsubr
          250 160 callgsubr
          -242 227 callgsubr
        </CharString>
        <CharString name="uni0915094D091C">
          1122 1586 485 rmoveto
          101 callgsubr
          -331 vlineto
          -58 callgsubr
          1001 283 callsubr
          -1855 -59 517 -392 hlineto
          -94 callsubr
          -103 callsubr
          -96 callgsubr
          -86 callsubr
          241 -269 hlineto
          30 callsubr
        </CharString>
        <CharString name="uni0915094D091F">
          782 910 485 rmoveto
          -7 120 callgsubr
          654 -78 vlineto
          88 -59 173 callsubr
          -1515 -59 517 -392 vlineto
          -94 callsubr
          -103 callsubr
          -96 callgsubr
          -86 callsubr
          213 hlineto
          -38 callgsubr
          -327 -55 callgsubr
        </CharString>
        <CharString name="uni0915094D0923">
          1116 1245 168 -21 callgsubr
          -628 -78 116 callsubr
          249 -78 vlineto
          995 137 rmoveto
          -1849 -59 517 -392 hlineto
          -94 callsubr
          -103 callsubr
          -96 callgsubr
          -86 callsubr
          215 -269 hlineto
          210 callsubr
        </CharString>
        <CharString name="uni0915094D0924">
          389 1102 302 callsubr
          -1122 -59 517 -78 -461 -59 73 vlineto
          44 callsubr
          -320 -100 callsubr
          260 59 -219 -103 callgsubr
          305 vlineto
          183 callgsubr
          278 -426 88 392 hlineto
          26 8 8 284 callsubr
          -95 callsubr
          -219 -59 260 hlineto
          53 26 26 53 hvcurveto
          327 -12 callgsubr
        </CharString>
        <CharString name="uni0915094D0924094D092F">
          1512 1977 176 -75 callsubr
          -2245 -59 517 -392 hlineto
          -94 callsubr
          -103 callsubr
          -96 callgsubr
          -86 callsubr
          214 184 callgsubr
          370 59 -411 hlineto
          -8 120 callgsubr
          1052 vlineto
          -99 callgsubr
        </CharString>
        <CharString name="uni0915094D0924094D0930">
          841 1307 270 rmoveto
          281 callsubr
          -257 hlineto
          -58 callgsubr
          722 vlineto
          247 59 rmoveto
          -1574 -59 517 -392 hlineto
          -94 callsubr
          -103 callsubr
          -96 callgsubr
          -86 callsubr
          236 hlineto
          44 50 -8 32 callgsubr
          79 -210 87 -10 callsubr
        </CharString>
        <CharString name="uni0915094D0924094D0935">
          1202 1667 171 rmoveto
          -26 -8 -8 -72 callgsubr
          -712 hlineto
          -2 120 callgsubr
          1082 vlineto
          146 callgsubr
          -1935 -59 517 -392 hlineto
          -94 callsubr
          -103 callsubr
          -96 callgsubr
          -86 callsubr
          208 184 callgsubr
          287 hlineto
          -1 -6 0 -7 -7 vvcurveto
          102 callgsubr
        </CharString>
        <CharString name="uni0915094D0925">
          1075 1788 279 callsubr
          -548 -15 callgsubr
          -58 -221 vlineto
          -58 callgsubr
          70 59 -675 -59 517 -392 vlineto
          -94 callsubr
          -103 callsubr
          -96 callgsubr
          -86 callsubr
          307 71 callsubr
        </CharString>
        <CharString name="uni0915094D0926">
          798 907 485 rmoveto
          -4 120 callgsubr
          668 -78 vlineto
          88 -59 273 callgsubr
          -1531 -59 517 -392 vlineto
          -94 callsubr
          -103 callsubr
          -96 callgsubr
          -86 callsubr
          210 129 callgsubr
        </CharString>
        <CharString name="uni0915094D0928">
          1088 1552 485 rmoveto
          -935 hlineto
          -58 callgsubr
          967 vlineto
          45 callsubr
          -1821 -59 517 -392 hlineto
          -94 callsubr
          -103 callsubr
          -96 callgsubr
          -86 callsubr
          201 hlineto
          65 callsubr
        </CharString>
        <CharString name="uni0915094D092A">
          804 1269 -35 callgsubr
          -652 -78 116 callsubr
          259 -78 vlineto
          674 137 rmoveto
          -1538 -59 517 -392 hlineto
          -94 callsubr
          -103 callsubr
          -96 callgsubr
          -86 callsubr
          225 -269 hlineto
          47 callgsubr
        </CharString>
        <CharString name="uni0915094D092A094D0930">
          813 1278 24 callsubr
          -661 -78 116 callsubr
          268 -78 vlineto
          674 137 rmoveto
          -1547 -59 517 -392 hlineto
          -94 callsubr
          -103 callsubr
          -96 callgsubr
          -86 callsubr
          234 -237 122 callgsubr
        </CharString>
        <CharString name="uni0915094D092B">
          1170 1270 -35 callgsubr
          -653 -78 116 callsubr
          260 -78 vlineto
          1038 78 rmoveto
          59 -1903 -59 517 -392 vlineto
          -94 callsubr
          -103 callsubr
          -96 callgsubr
          -86 callsubr
          226 -269 hlineto
          -53 26 -26 53 vhcurveto
          314 hlineto
          14 11 3 6 7 hvcurveto
          -87 -85 callgsubr
        </CharString>
        <CharString name="uni0915094D092E">
          1099 1563 -71 callsubr
          -341 59 rmoveto
          0 -286 vlineto
          -58 callgsubr
          659 -78 -336 vlineto
          904 137 rmoveto
          -1832 -59 517 -392 hlineto
          -94 callsubr
          -103 callsubr
          -96 callgsubr
          -86 callsubr
          211 hlineto
          -1 -6 0 -7 -7 vvcurveto
          4 callsubr
        </CharString>
        <CharString name="uni0915094D092F">
          1023 1488 176 -75 callsubr
          -1756 -59 517 -392 hlineto
          -94 callsubr
          -103 callsubr
          -96 callgsubr
          -86 callsubr
          215 59 -217 hlineto
          -58 callgsubr
          563 vlineto
          -99 callgsubr
        </CharString>
        <CharString name="uni0915094D0930">
          389 1102 302 callsubr
          -1122 -59 517 -392 vlineto
          -94 callsubr
          -103 callsubr
          -96 callgsubr
          219 hlineto
          -105 -143 rlineto
          98 -17 callsubr
        </CharString>
        <CharString name="uni0915094D0930.aTrad">
          52 callgsubr
        </CharString>
        <CharString name="uni0915094D0930094D">
          48 617 485 116 callsubr
          176 59 -781 -59 517 -392 vlineto
          -94 callsubr
          -103 callsubr
          -96 callgsubr
          215 hlineto
          -105 -143 rlineto
          102 268 callgsubr
          288 59 hlineto
          endchar
        </CharString>
        <CharString name="uni0915094D0932">
          1156 1620 485 rmoveto
          196 callsubr
          -303 hlineto
          -3 120 callgsubr
          1035 283 callsubr
          -1889 -59 517 -392 hlineto
          -94 callsubr
          -103 callsubr
          -96 callgsubr
          -86 callsubr
          209 hlineto
          -38 callgsubr
          -327 -69 callgsubr
        </CharString>
        <CharString name="uni0915094D0935">
          793 1258 171 rmoveto
          -26 -8 -8 -72 callgsubr
          -591 hlineto
          -58 callgsubr
          673 vlineto
          146 callgsubr
          -1526 -59 517 -392 hlineto
          -94 callsubr
          -103 callsubr
          -96 callgsubr
          -86 callsubr
          205 hlineto
          -1 -6 0 -7 -7 vvcurveto
          102 callgsubr
        </CharString>
        <CharString name="uni0915094D0935094D092F">
          1505 1970 176 -104 callgsubr
          -1030 -426 rmoveto
          -105 callsubr
          265 59 -588 hlineto
          -58 callgsubr
          1045 vlineto
          63 callsubr
          937 485 rmoveto
          -2238 -59 517 -392 hlineto
          -94 callsubr
          -103 callsubr
          -96 callgsubr
          -86 callsubr
          202 hlineto
          105 callgsubr
          386 1 callsubr
        </CharString>
        <CharString name="uni0915094D0936">
          1139 904 282 callgsubr
          -58 -208 vlineto
          -58 callgsubr
          60 59 -665 -59 517 -392 vlineto
          -94 callsubr
          -103 callsubr
          -96 callgsubr
          -86 callsubr
          294 106 hlineto
          -88 callgsubr
          567 hmoveto
          -249 -622 -16 callgsubr
        </CharString>
        <CharString name="uni0915094D0937">
          383 530 394 18 callsubr
          566 91 rmoveto
          -249 -259 -239 hlineto
          -59 callgsubr
          627 -305 -16 callgsubr
        </CharString>
        <CharString name="uni0915094D0937094D">
          30 239 531 rmoveto
          283 callgsubr
          228 -60 callsubr
          -137 98 callsubr
          hlineto
          -26 -7 -97 callsubr
          639 -89 rmoveto
          58 -270 vlineto
          -59 callgsubr
          endchar
        </CharString>
        <CharString name="uni0915094D0937094D092E">
          1110 1574 -71 callsubr
          -725 -32 18 callsubr
          1293 91 rmoveto
          -1066 -59 498 -78 -336 hlineto
          -103 callsubr
          -43 -232 vlineto
          -59 callgsubr
          620 -148 hlineto
          -10 callgsubr
        </CharString>
        <CharString name="uni0915094D0937094D092E094D">
          741 1255 -78 callgsubr
          -725 -32 18 callsubr
          1079 -46 rmoveto
          -265 78 264 59 -851 -59 498 -78 -336 hlineto
          -103 callsubr
          -43 -232 vlineto
          -59 callgsubr
          620 -148 hlineto
          116 callgsubr
          269 265 vlineto
          endchar
        </CharString>
        <CharString name="uni0915094D0937094D092E094D092F">
          1764 2229 176 -104 callgsubr
          -974 -97 callgsubr
          -725 -32 18 callsubr
          1947 91 rmoveto
          -1715 -59 493 -78 -336 hlineto
          -103 callsubr
          -43 -232 vlineto
          -59 callgsubr
          620 -148 hlineto
          116 callgsubr
          269 232 59 -232 78 545 vlineto
          -99 callgsubr
        </CharString>
        <CharString name="uni0915094D0937094D092F">
          1020 1485 202 callgsubr
          136 267 -47 callgsubr
          153 228 callgsubr
          -955 -169 18 callsubr
          1203 91 rmoveto
          -987 -59 399 -60 callsubr
          -137 -33 callgsubr
          -537 hlineto
          -59 callgsubr
          610 -148 hlineto
          -84 callsubr
        </CharString>
        <CharString name="uni0915094D0937094D0935">
          820 530 394 18 callsubr
          1003 91 rmoveto
          -785 -59 537 -392 hlineto
          -26 -8 -8 -72 callgsubr
          -306 hlineto
          -103 callsubr
          -43 -242 vlineto
          -59 callgsubr
          630 -148 hlineto
          68 callgsubr
        </CharString>
        <CharString name="uni0915094D0938">
          1107 1571 339 rmoveto
          -241 hlineto
          -74 callsubr
          249 hlineto
          -658 -224 rmoveto
          146 -296 vlineto
          -58 callgsubr
          626 245 callsubr
          -1841 -59 517 -392 hlineto
          -94 callsubr
          -103 callsubr
          -96 callgsubr
          -86 callsubr
          205 -347 hlineto
          -9 callgsubr
        </CharString>
        <CharString name="uni0915094D0938094D091F">
          1556 1684 234 callgsubr
          -67 -249 vlineto
          -74 callsubr
          665 -78 hlineto
          -1074 -146 rmoveto
          133 callgsubr
          864 87 173 callsubr
          -2289 -59 517 -392 vlineto
          -94 callsubr
          -103 callsubr
          -96 callgsubr
          -86 callsubr
          231 -58 callsubr
          666 -201 -55 callgsubr
        </CharString>
        <CharString name="uni0915094D0938094D0921">
          1528 1672 485 rmoveto
          236 callsubr
          -67 -237 vlineto
          -74 callsubr
          650 -78 hlineto
          -1059 -146 rmoveto
          137 -1 9 -322 vlineto
          -58 callgsubr
          653 vlineto
          -69 callsubr
          849 87 273 callsubr
          -2261 -59 517 -392 vlineto
          -94 callsubr
          -103 callsubr
          -96 callgsubr
          -86 callsubr
          232 -58 callsubr
          666 vlineto
          -19 12 22 -9 32 hhcurveto
          -28 callgsubr
          -95 29 callsubr
        </CharString>
        <CharString name="uni0915094D0938094D0924">
          1597 2061 186 callgsubr
          -1122 -224 rmoveto
          133 callgsubr
          1073 283 rmoveto
          -2330 -59 517 -392 hlineto
          -94 callsubr
          -103 callsubr
          -96 callgsubr
          -86 callsubr
          231 -58 callsubr
          664 -201 -56 callsubr
        </CharString>
        <CharString name="uni0915094D0938094D092A094D0930">
          1570 2035 24 callsubr
          -679 -224 rmoveto
          -74 callsubr
          262 -224 hlineto
          -671 hmoveto
          133 callgsubr
          1047 283 rmoveto
          -2304 -59 517 -392 hlineto
          -94 callsubr
          -103 callsubr
          -96 callgsubr
          -86 callsubr
          231 -58 callsubr
          671 -91 83 callsubr
        </CharString>
        <CharString name="uni0915094D0938094D092A094D0932">
          2309 2773 485 rmoveto
          56 callgsubr
          -236 38 callsubr
          -255 7 callgsubr
          1113 vlineto
          -1443 -224 rmoveto
          -74 callsubr
          250 -224 hlineto
          -659 hmoveto
          146 -296 vlineto
          -58 callgsubr
          626 vlineto
          -69 callsubr
          1811 283 rmoveto
          -3042 -59 517 -392 hlineto
          -94 callsubr
          -103 callsubr
          -96 callgsubr
          -86 callsubr
          205 -58 callsubr
          659 124 callsubr
          299 hlineto
          12 160 callsubr
          -2 -69 callgsubr
        </CharString>
        <CharString name="uni0916">
          688 1400 8 callsubr
          -1420 -59 488 -230 hlineto
          -26 -5 -5 -26 vhcurveto
          -228 174 -89 -397 hlineto
          -65 callsubr
        </CharString>
        <CharString name="uni0916093C">
          688 514 -157 11 callgsubr
          886 687 rmoveto
          -1420 -59 488 -230 hlineto
          -26 -5 -5 -26 vhcurveto
          -228 174 -89 -397 hlineto
          -65 callsubr
        </CharString>
        <CharString name="uni0916093C094D">
          340 465 -157 11 callgsubr
          -256 308 76 callsubr
        </CharString>
        <CharString name="uni0916093C094D0924">
          1126 465 -157 11 callgsubr
          1374 687 rmoveto
          -1859 -57 callsubr
          1034 -78 -379 275 callgsubr
          -274 278 callgsubr
          263 59 -299 275 callsubr
          314 hlineto
          12 160 callsubr
          -44 -56 callsubr
        </CharString>
        <CharString name="uni0916093C094D092E">
          1422 465 -157 11 callgsubr
          1421 550 164 callsubr
          -2155 -57 callsubr
          1011 -78 -336 275 callgsubr
          -36 callgsubr
          14 11 2 3 9 hvcurveto
          -32 9 25 -15 41 232 callgsubr
        </CharString>
        <CharString name="uni0916093C094D092F">
          1342 465 -157 11 callgsubr
          1342 241 -75 callsubr
          -2075 -57 callsubr
          911 106 callsubr
          -156 155 callgsubr
          14 11 2 3 9 hvcurveto
          -32 9 25 -15 41 246 callsubr
        </CharString>
        <CharString name="uni0916093C094D0930">
          646 944 -227 11 callgsubr
          456 757 rmoveto
          -1420 -59 488 -230 hlineto
          -26 -5 -5 -26 vhcurveto
          -228 174 -89 -397 2 callsubr
        </CharString>
        <CharString name="uni0916093C094D0930094D">
          319 269 callsubr
          476 59 -1052 -59 488 -230 vlineto
          -53 callgsubr
          765 -317 11 callgsubr
          -150 313 132 callsubr
        </CharString>
        <CharString name="uni0916093C094D0935">
          1121 465 -157 11 callgsubr
          1369 687 rmoveto
          -1854 -57 callsubr
          1030 -392 vlineto
          -26 -8 -8 -72 callgsubr
          -306 hlineto
          -103 callsubr
          -206 vlineto
          230 callgsubr
          -36 callgsubr
          13 11 1 3 9 hvcurveto
          -31 10 24 -15 41 246 callgsubr
        </CharString>
        <CharString name="uni0916093C094D0936">
          1431 465 -157 11 callgsubr
          -256 308 -4 callsubr
        </CharString>
        <CharString name="uni0916093C094D0938">
          1435 465 -157 11 callgsubr
          1434 404 rmoveto
          -241 hlineto
          -74 callsubr
          249 hlineto
          250 59 rmoveto
          -2169 -57 callsubr
          983 vlineto
          -69 callsubr
          -298 137 -89 -264 155 callgsubr
          12 160 callsubr
          -44 11 callsubr
        </CharString>
        <CharString name="uni0916094D">
          340 209 243 76 callsubr
        </CharString>
        <CharString name="uni0916094D0916">
          1719 2432 8 callsubr
          -2452 -57 callsubr
          944 -230 vlineto
          19 callgsubr
          -264 155 callgsubr
          12 160 callsubr
          -44 vlineto
          -65 callsubr
        </CharString>
        <CharString name="uni0916094D0924">
          1126 1839 8 callsubr
          -1859 -57 callsubr
          1034 -78 -379 275 callgsubr
          -274 278 callgsubr
          263 59 -299 275 callsubr
          314 hlineto
          12 160 callsubr
          -44 -56 callsubr
        </CharString>
        <CharString name="uni0916094D0928">
          1443 1590 31 callsubr
          -2176 -57 callsubr
          1351 258 callgsubr
          -316 -5 callgsubr
          356 hlineto
          14 11 2 3 9 hvcurveto
          -32 9 25 -15 41 hhcurveto
          -39 callsubr
        </CharString>
        <CharString name="uni0916094D092E">
          1422 1886 485 164 callsubr
          -2155 -57 callsubr
          1011 -78 -336 275 callgsubr
          -36 callgsubr
          14 11 2 3 9 hvcurveto
          -32 9 25 -15 41 232 callgsubr
        </CharString>
        <CharString name="uni0916094D092F">
          1342 1807 176 -75 callsubr
          -2075 -57 callsubr
          911 106 callsubr
          -156 155 callgsubr
          14 11 2 3 9 hvcurveto
          -32 9 25 -15 41 246 callsubr
        </CharString>
        <CharString name="uni0916094D0930">
          688 1400 8 callsubr
          -1420 -59 488 -230 hlineto
          -26 -5 -5 -26 vhcurveto
          -228 174 -89 -397 2 callsubr
        </CharString>
        <CharString name="uni0916094D0930094D">
          319 269 callsubr
          476 59 -1052 -59 488 -230 vlineto
          -53 callgsubr
          615 88 132 callsubr
        </CharString>
        <CharString name="uni0916094D0935">
          1121 1834 8 callsubr
          -1854 -57 callsubr
          1030 -392 vlineto
          -26 -8 -8 -72 callgsubr
          -306 hlineto
          -103 callsubr
          -206 vlineto
          230 callgsubr
          -36 callgsubr
          13 11 1 3 9 hvcurveto
          -31 10 24 -15 41 246 callgsubr
        </CharString>
        <CharString name="uni0916094D0936">
          1431 209 243 -4 callsubr
        </CharString>
        <CharString name="uni0917">
          418 207 137 110 callsubr
          -563 88 117 callsubr
          vlineto
          endchar
        </CharString>
        <CharString name="uni0917093C">
          418 328 -79 11 callgsubr
          -121 124 110 callsubr
          -563 88 117 callsubr
          vlineto
          endchar
        </CharString>
        <CharString name="uni0917093C094D">
          50 325 -79 11 callgsubr
          -118 124 rmoveto
          -64 callgsubr
          229 485 rmoveto
          -783 -64 callsubr
          110 vlineto
          endchar
        </CharString>
        <CharString name="uni0917093C094D0930">
          354 684 -236 11 callgsubr
          -477 281 110 callsubr
          -328 vlineto
          -281 -292 rlineto
          107 hlineto
          178 193 rlineto
          0 -4 -54 -48 vvcurveto
          -46 88 575 -62 callgsubr
        </CharString>
        <CharString name="uni0917093C094D0930094D">
          106 callgsubr
          289 39 rmoveto
          -47 55 -293 -308 rlineto
          107 hlineto
          -35 -179 11 callgsubr
          endchar
        </CharString>
        <CharString name="uni0917094D">
          50 -4 callgsubr
          229 485 rmoveto
          -783 -64 callsubr
          110 vlineto
          endchar
        </CharString>
        <CharString name="uni0917094D0917">
          1161 950 -9 callsubr
          -1070 hmoveto
          -64 callgsubr
          1340 485 rmoveto
          -1894 -64 callsubr
          655 -137 -396 vlineto
          181 callgsubr
        </CharString>
        <CharString name="uni0917094D0918">
          949 1413 149 callsubr
          -1206 -426 rmoveto
          -64 callgsubr
          1128 485 rmoveto
          -1682 -64 callsubr
          219 vlineto
          30 callgsubr
          439 39 callgsubr
        </CharString>
        <CharString name="uni0917094D091C">
          1126 -4 callgsubr
          1305 485 rmoveto
          -1859 -64 callsubr
          937 -78 -318 -317 vlineto
          -79 callsubr
          230 213 callgsubr
          vlineto
          endchar
        </CharString>
        <CharString name="uni0917094D0923">
          1145 1274 168 -21 callgsubr
          -1067 -426 rmoveto
          -64 callgsubr
          1324 485 rmoveto
          -1878 -64 callsubr
          210 199 callsubr
        </CharString>
        <CharString name="uni0917094D0926">
          813 -4 callgsubr
          822 289 273 callgsubr
          -1546 -59 585 -137 -396 vlineto
          231 callgsubr
          615 60 callsubr
          endchar
        </CharString>
        <CharString name="uni0917094D0927">
          1119 103 callgsubr
          1852 hmoveto
          109 callsubr
          -547 -82 callgsubr
          -119 vlineto
          -53 26 -26 53 vhcurveto
          590 -74 callgsubr
        </CharString>
        <CharString name="uni0917094D0927094D092F">
          1704 36 callsubr
          2189 -446 93 callgsubr
          -938 -59 350 hlineto
          -17 callgsubr
          -295 -198 230 callsubr
          -517 -82 callgsubr
          -119 vlineto
          -53 26 -26 53 vhcurveto
          562 -37 callgsubr
          519 hlineto
          18 12 4 11 7 hvcurveto
          -93 88 -91 callgsubr
        </CharString>
        <CharString name="uni0917094D0927094D0935">
          1504 36 callsubr
          2237 hmoveto
          -738 -59 490 -392 hlineto
          -26 -8 -8 -72 callgsubr
          -306 hlineto
          -103 callsubr
          -236 38 callsubr
          -517 -82 callgsubr
          -119 vlineto
          -53 26 -26 53 vhcurveto
          562 16 callsubr
        </CharString>
        <CharString name="uni0917094D0928">
          1102 1249 -78 callgsubr
          -1042 -289 rmoveto
          -64 callgsubr
          1281 485 rmoveto
          -1835 -64 callsubr
          913 -78 -654 vlineto
          -53 -26 -26 -53 hvcurveto
          59 callgsubr
        </CharString>
        <CharString name="uni0917094D0928094D092F">
          1792 1288 -78 callgsubr
          315 hmoveto
          59 -652 vlineto
          -93 callsubr
          vlineto
          882 -250 -104 callgsubr
          -2050 -426 rmoveto
          -64 callgsubr
          1971 485 rmoveto
          -2525 -64 callsubr
          1264 vlineto
          -99 callgsubr
        </CharString>
        <CharString name="uni0917094D092C">
          883 961 218 callsubr
          -1106 hmoveto
          -64 callgsubr
          1062 485 rmoveto
          -1616 -64 callsubr
          694 -251 vlineto
          146 callsubr
        </CharString>
        <CharString name="uni0917094D092D">
          1157 103 callgsubr
          1323 -455 -49 callsubr
          567 312 rmoveto
          -248 -253 -230 174 hlineto
          -26 callsubr
          230 -310 88 -91 callgsubr
        </CharString>
        <CharString name="uni0917094D092D094D092F">
          1762 36 callsubr
          2247 -446 34 callgsubr
          -30 vhcurveto
          -474 -103 callgsubr
          142 247 -47 callgsubr
          147 228 callgsubr
          -944 -396 -49 callsubr
          1192 312 rmoveto
          -967 -59 379 -60 callsubr
          -131 -33 callgsubr
          -515 174 hlineto
          -26 callsubr
          220 175 callgsubr
          519 hlineto
          18 12 4 11 7 hvcurveto
          -93 88 -91 callgsubr
        </CharString>
        <CharString name="uni0917094D092E">
          1133 1597 -71 callsubr
          -1071 -289 rmoveto
          -64 callgsubr
          1312 485 rmoveto
          -1866 -64 callsubr
          625 -78 -336 vlineto
          -53 -26 -26 -53 hvcurveto
          4 callsubr
        </CharString>
        <CharString name="uni0917094D092F">
          1013 1478 176 -104 callgsubr
          -1271 -426 rmoveto
          -64 callgsubr
          1192 485 rmoveto
          -1746 -64 callsubr
          485 vlineto
          -99 callgsubr
        </CharString>
        <CharString name="uni0917094D0930">
          418 207 137 110 callsubr
          -328 vlineto
          -281 -292 rlineto
          107 hlineto
          178 193 rlineto
          0 -4 -54 -48 vvcurveto
          -46 88 575 -62 callgsubr
        </CharString>
        <CharString name="uni0917094D0930094D">
          106 callgsubr
          242 94 rmoveto
          -293 -308 rlineto
          107 hlineto
          233 253 rlineto
          endchar
        </CharString>
        <CharString name="uni0917094D0930094D092F">
          1048 1513 176 -104 callgsubr
          -1306 -426 rmoveto
          -64 callgsubr
          1227 485 rmoveto
          -1781 -64 callsubr
          520 106 callsubr
          -156 hlineto
          -256 -269 rlineto
          107 hlineto
          157 171 rlineto
          -24 12 23 -12 36 246 callsubr
        </CharString>
        <CharString name="uni0917094D0932">
          1193 -4 callgsubr
          1372 485 rmoveto
          -1926 -64 callsubr
          1004 -78 -304 vlineto
          -29 -11 -13 -20 -6 hvcurveto
          -4 hlineto
          -102 callgsubr
          277 213 callgsubr
          hlineto
          endchar
        </CharString>
        <CharString name="uni0917094D0935">
          823 -4 callgsubr
          1002 485 rmoveto
          -1556 -64 callsubr
          635 -392 vlineto
          -26 -8 -8 -72 callgsubr
          -306 hlineto
          -103 callsubr
          102 callgsubr
        </CharString>
        <CharString name="uni0917094D0938">
          1146 1610 339 rmoveto
          -241 hlineto
          -74 callsubr
          249 hlineto
          -1403 -426 rmoveto
          -64 callgsubr
          1326 485 rmoveto
          -1880 -64 callsubr
          597 vlineto
          -89 callsubr
          658 -280 89 563 161 vlineto
          endchar
        </CharString>
        <CharString name="uni0918">
          206 670 149 callsubr
          249 59 rmoveto
          -939 -59 149 hlineto
          30 callgsubr
          439 39 callgsubr
        </CharString>
        <CharString name="uni0918094D">
          -175 240 137 187 callsubr
          399 59 -659 -59 149 hlineto
          30 callgsubr
          491 59 hlineto
          endchar
        </CharString>
        <CharString name="uni0918094D0928">
          940 1404 248 callgsubr
          -236 -1 38 callsubr
          -396 hlineto
          193 callgsubr
          1164 hlineto
          45 callsubr
          -1673 -59 149 hlineto
          30 callgsubr
          441 hlineto
          26 17 6 256 callgsubr
          -6 25 hhcurveto
          -39 callsubr
        </CharString>
        <CharString name="uni0918094D092E">
          940 1404 -71 callsubr
          -415 -256 rmoveto
          24 callgsubr
          -396 hlineto
          193 callgsubr
          845 226 callgsubr
          -1673 -59 149 hlineto
          30 callgsubr
          441 hlineto
          26 17 5 11 10 hvcurveto
          -11 13 19 224 callgsubr
        </CharString>
        <CharString name="uni0918094D092F">
          860 1325 176 -104 callgsubr
          -1085 -426 187 callsubr
          745 60 callgsubr
          937 485 rmoveto
          -1593 -59 149 hlineto
          30 callgsubr
          441 1 callsubr
        </CharString>
        <CharString name="uni0918094D0930">
          206 670 182 rmoveto
          -46 callgsubr
          -396 -103 callgsubr
          109 204 callsubr
          249 59 rmoveto
          -939 301 callgsubr
          -138 vlineto
          237 callgsubr
          356 hlineto
          -150 -143 rlineto
          108 hlineto
          158 154 rlineto
          -100 -57 callgsubr
        </CharString>
        <CharString name="uni0918094D0930094D">
          -163 120 398 rmoveto
          237 callgsubr
          351 hlineto
          -150 -143 rlineto
          113 hlineto
          161 157 rlineto
          23 45 -456 -103 callgsubr
          109 -107 callsubr
          213 59 -213 -103 callgsubr
          123 -107 callsubr
          310 59 -570 301 callgsubr
          endchar
        </CharString>
        <CharString name="uni0919">
          161 697 313 48 callgsubr
          357 -83 callgsubr
          135 83 callgsubr
        </CharString>
        <CharString name="uni0919094D">
          161 328 -61 70 callsubr
          278 374 48 callgsubr
          357 -83 callgsubr
          135 83 callgsubr
        </CharString>
        <CharString name="uni0919094D0930">
          161 697 313 rmoveto
          77 75 -77 hlineto
          -717 234 rmoveto
          -59 535 -78 -327 vlineto
          236 callsubr
          -83 -8 callsubr
          319 -60 callsubr
          -123 -95 callsubr
          -274 -43 callsubr
          70 -88 -81 -8 callsubr
          123 10 callsubr
          102 -83 callgsubr
          145 83 callgsubr
        </CharString>
        <CharString name="uni091A">
          150 863 8 callsubr
          103 callsubr
        </CharString>
        <CharString name="uni091A094D">
          -222 591 8 callsubr
          -611 -59 611 hlineto
          -351 -426 rmoveto
          1 callgsubr
          425 59 hlineto
          endchar
        </CharString>
        <CharString name="uni091A094D091A">
          632 1345 8 callsubr
          -1365 -59 1117 -392 hlineto
          -26 -8 -8 -26 vhcurveto
          -341 hlineto
          208 callsubr
          -229 38 callsubr
          -328 16 callgsubr
          373 -37 callgsubr
          384 -74 callgsubr
        </CharString>
        <CharString name="uni091A094D091B">
          858 1142 485 rmoveto
          -115 -75 callgsubr
          411 hlineto
          429 hmoveto
          59 -1591 -59 640 vlineto
          85 callsubr
          -88 38 callsubr
          -337 16 callgsubr
          382 hlineto
          12 160 callsubr
          -2 -100 callsubr
          662 79 callsubr
          -121 78 hlineto
          endchar
        </CharString>
        <CharString name="uni091A094D091B094D0935">
          858 1177 46 callgsubr
          -1591 -59 640 vlineto
          85 callsubr
          -88 38 callsubr
          -337 16 callgsubr
          382 hlineto
          13 11 1 3 9 hvcurveto
          -35 7 25 -18 44 hhcurveto
          141 callsubr
        </CharString>
        <CharString name="uni091A094D0928">
          884 1031 31 callsubr
          -1617 -59 1368 -78 -654 hlineto
          -53 -26 -26 -53 hvcurveto
          -236 vlineto
          -24 -8 -9 -26 vhcurveto
          -341 16 callgsubr
          386 -37 callgsubr
          -39 callsubr
        </CharString>
        <CharString name="uni091A094D092E">
          871 1335 485 164 callsubr
          -1604 -59 1036 -78 -336 hlineto
          -103 callsubr
          -248 vlineto
          230 callgsubr
          -328 16 callgsubr
          373 hlineto
          25 17 5 11 11 hvcurveto
          -11 13 18 224 callgsubr
        </CharString>
        <CharString name="uni091A094D092F">
          792 1257 176 -75 callsubr
          -1525 -59 937 60 callgsubr
          -328 16 callgsubr
          373 1 callsubr
        </CharString>
        <CharString name="uni091A094D0930">
          150 863 8 callsubr
          -883 -59 635 -381 hlineto
          -46 callgsubr
          -341 -103 callgsubr
          216 197 callgsubr
          -9 -13 vvcurveto
          -231 -100 callsubr
          297 hlineto
          -154 -143 rlineto
          113 hlineto
          160 153 rlineto
          -99 88 -91 callgsubr
        </CharString>
        <CharString name="uni091A094D0930094D">
          -214 -20 563 rmoveto
          519 59 -519 hlineto
          56 -196 rmoveto
          262 callsubr
          -9 -13 vvcurveto
          -231 -100 callsubr
          297 hlineto
          -154 -143 rlineto
          113 hlineto
          169 162 rlineto
          37 40 -421 -103 callgsubr
          216 212 callgsubr
          hlineto
          endchar
        </CharString>
        <CharString name="uni091B">
          368 652 485 rmoveto
          -115 -75 callgsubr
          411 hlineto
          429 hmoveto
          59 -1101 -59 150 vlineto
          49 callgsubr
          53 -26 26 -53 vhcurveto
          -121 78 hlineto
          endchar
        </CharString>
        <CharString name="uni091B094D">
          368 1081 302 callsubr
          -1101 -59 150 vlineto
          49 callgsubr
          53 -26 26 -53 vhcurveto
          -325 -75 callgsubr
          endchar
        </CharString>
        <CharString name="uni091B094D0928">
          368 679 485 rmoveto
          -142 hlineto
          -103 callsubr
          255 callgsubr
          167 59 -129 -43 callsubr
          105 vlineto
          283 callgsubr
          253 -32 callgsubr
          -278 37 callgsubr
          140 -107 callsubr
          171 59 -171 -103 callgsubr
          154 -107 callsubr
          438 hlineto
          402 hmoveto
          59 -1101 -59 150 vlineto
          44 callsubr
          -169 vlineto
          -44 callsubr
          -160 -100 callsubr
          473 -83 -341 162 callsubr
          -51 88 39 vlineto
          283 callgsubr
          300 -126 87 268 102 -83 callgsubr
          300 -78 callsubr
          -101 78 hlineto
          endchar
        </CharString>
        <CharString name="uni091B094D092F">
          1332 1796 -6 callsubr
          -627 0 -8 hlineto
          -325 -75 callgsubr
          1555 242 callsubr
          -2065 -59 150 hlineto
          49 callgsubr
          7 0 7 -1 6 vhcurveto
          516 -13 callgsubr
        </CharString>
        <CharString name="uni091B094D0930">
          368 659 485 rmoveto
          -122 -75 callgsubr
          418 hlineto
          422 hmoveto
          59 -1101 -59 150 vlineto
          112 callsubr
          53 -26 26 -53 vhcurveto
          -121 78 hlineto
          endchar
        </CharString>
        <CharString name="uni091B094D0930094D092F">
          1318 1782 -6 callsubr
          -946 -75 callgsubr
          1541 242 callsubr
          -2051 -59 150 hlineto
          112 callsubr
          7 0 7 -1 6 vhcurveto
          502 -13 callgsubr
        </CharString>
        <CharString name="uni091B094D0935">
          368 687 46 callgsubr
          -1101 -59 150 vlineto
          85 callsubr
          -150 -100 callsubr
          141 callsubr
        </CharString>
        <CharString name="uni091C">
          382 1095 8 callsubr
          -1115 -59 866 -78 -318 180 callsubr
          269 230 213 callgsubr
          vlineto
          endchar
        </CharString>
        <CharString name="uni091C093C">
          382 312 -79 11 callgsubr
          783 609 rmoveto
          -1115 -59 866 -78 -318 180 callsubr
          269 230 213 callgsubr
          vlineto
          endchar
        </CharString>
        <CharString name="uni091C093C094D">
          18 320 -79 11 callgsubr
          571 472 rmoveto
          177 callsubr
          269 275 vlineto
          -911 196 rmoveto
          -59 911 59 vlineto
          endchar
        </CharString>
        <CharString name="uni091C093C094D091C093C">
          1105 320 -79 11 callgsubr
          713 -92 11 callgsubr
          785 609 rmoveto
          -1838 -59 1589 78 callgsubr
          -403 -317 vlineto
          -79 callsubr
          227 -269 205 callgsubr
        </CharString>
        <CharString name="uni091C093C094D092F">
          1041 318 -107 11 callgsubr
          533 441 rmoveto
          59 -323 -317 vlineto
          -79 callsubr
          vlineto
          890 -250 -75 callsubr
          -1774 -59 1186 hlineto
          -99 callgsubr
        </CharString>
        <CharString name="uni091C093C094D0930">
          369 317 -148 11 callgsubr
          778 678 rmoveto
          -1115 -59 866 -78 -318 180 callsubr
          269 230 -217 69 callsubr
          -5 298 callsubr
          89 575 -62 callgsubr
        </CharString>
        <CharString name="uni091C093C094D0930094D">
          286 callgsubr
          -399 -668 11 callgsubr
          288 439 rmoveto
          275 59 177 callsubr
          241 65 rmoveto
          -293 -279 243 callgsubr
          223 223 rlineto
          endchar
        </CharString>
        <CharString name="uni091C094D">
          18 891 485 rmoveto
          177 callsubr
          269 275 vlineto
          -911 196 rmoveto
          -59 911 59 vlineto
          endchar
        </CharString>
        <CharString name="uni091C094D0915">
          1109 1822 302 callsubr
          -1842 -59 1237 -392 vlineto
          -94 callsubr
          -8 0 177 callsubr
          269 205 vlineto
          -1 -6 0 -7 -7 vvcurveto
          -42 callsubr
        </CharString>
        <CharString name="uni091C094D091C">
          1103 1816 8 callsubr
          -1836 -59 1587 -78 -318 27 callgsubr
          230 213 callgsubr
          vlineto
          endchar
        </CharString>
        <CharString name="uni091C094D091C094D091E">
          1079 1792 8 callsubr
          -1812 -59 1563 -78 -648 hlineto
          -4 0 177 callsubr
          269 201 vlineto
          -38 callgsubr
          -65 vlineto
          55 callgsubr
          607 -11 callsubr
        </CharString>
        <CharString name="uni091C094D091C094D092F">
          1757 1565 485 rmoveto
          -316 27 callgsubr
          228 vlineto
          657 -250 -75 callsubr
          -2490 -59 1902 hlineto
          -99 callgsubr
        </CharString>
        <CharString name="uni091C094D091C094D0935">
          1511 2224 8 callsubr
          -2244 -59 1996 -392 hlineto
          -26 -8 -8 -72 callgsubr
          -677 27 callgsubr
          205 vlineto
          -1 -6 0 -7 -7 vvcurveto
          102 callgsubr
        </CharString>
        <CharString name="uni091C094D091D">
          1123 1588 331 rmoveto
          -642 hlineto
          76 callgsubr
          220 hlineto
          146 callgsubr
          -1856 -59 1300 -78 -752 180 callsubr
          269 211 vlineto
          -38 callgsubr
          -24 callgsubr
          221 -272 88 -10 callsubr
        </CharString>
        <CharString name="uni091C094D091E">
          382 1095 8 callsubr
          -1115 -59 866 -78 -648 hlineto
          -103 callsubr
          -65 vlineto
          55 callgsubr
          607 -11 callsubr
        </CharString>
        <CharString name="uni091C094D091E094D">
          17 119 341 rmoveto
          55 callgsubr
          634 59 -675 hlineto
          -103 callsubr
          -139 216 rmoveto
          -59 893 59 vlineto
          endchar
        </CharString>
        <CharString name="uni091C094D091E094D092F">
          1004 239 321 rmoveto
          236 callgsubr
          42 -107 callsubr
          603 59 -644 hlineto
          -103 callsubr
          -65 -100 callsubr
          298 -60 callsubr
          -63 -95 callsubr
          -304 60 -89 -197 89 78 345 -83 callgsubr
          86 287 callsubr
          957 -145 -75 callsubr
          -1762 -59 1174 hlineto
          -99 callgsubr
        </CharString>
        <CharString name="uni091C094D091F">
          774 1319 426 173 callsubr
          -1507 -59 1251 -78 -329 vlineto
          -4 -3 0 -4 hhcurveto
          0 -363 -317 vlineto
          -79 callsubr
          208 vlineto
          -38 callgsubr
          -327 -55 callgsubr
        </CharString>
        <CharString name="uni091C094D0921">
          751 1311 426 273 callsubr
          -1485 -59 1243 -78 -327 vlineto
          -5 0 177 callsubr
          269 203 vlineto
          -38 callgsubr
          -19 callgsubr
          -95 29 callsubr
        </CharString>
        <CharString name="uni091C094D0924">
          813 1526 8 callsubr
          -1546 -59 1297 -78 -379 hlineto
          -7 0 177 callsubr
          269 204 vlineto
          -1 -6 0 -7 -7 vvcurveto
          -327 -56 callsubr
        </CharString>
        <CharString name="uni091C094D0926">
          786 1329 426 273 callgsubr
          -1519 -59 1261 274 callgsubr
          -4 0 177 callsubr
          269 201 62 callgsubr
        </CharString>
        <CharString name="uni091C094D0928">
          1079 1226 31 callsubr
          -1812 -59 1563 -78 -1015 180 callsubr
          269 195 vlineto
          65 callsubr
        </CharString>
        <CharString name="uni091C094D092C">
          863 941 218 callsubr
          283 485 rmoveto
          -1596 -59 1347 245 callgsubr
          -4 -4 0 -4 hhcurveto
          0 -363 -317 vlineto
          -79 callsubr
          209 188 callgsubr
        </CharString>
        <CharString name="uni091C094D092E">
          1088 1552 485 164 callsubr
          -1821 -59 1253 -78 -336 hlineto
          -6 0 177 callsubr
          269 203 vlineto
          -1 -6 0 -7 -7 vvcurveto
          4 callsubr
        </CharString>
        <CharString name="uni091C094D092F">
          1041 851 426 rmoveto
          59 -323 -317 vlineto
          -79 callsubr
          vlineto
          890 -250 -75 callsubr
          -1774 -59 1186 hlineto
          -99 callgsubr
        </CharString>
        <CharString name="uni091C094D0930">
          382 1095 8 callsubr
          -1115 -59 866 -78 -318 180 callsubr
          269 230 -217 69 callsubr
          -5 298 callsubr
          89 575 -62 callgsubr
        </CharString>
        <CharString name="uni091C094D0930094D">
          286 callgsubr
          -111 -137 rmoveto
          275 59 177 callsubr
          241 65 rmoveto
          -293 -279 243 callgsubr
          223 223 rlineto
          endchar
        </CharString>
        <CharString name="uni091C094D0935">
          818 1531 8 callsubr
          -1551 -59 1303 -392 hlineto
          -26 -8 -8 -72 callgsubr
          -705 180 callsubr
          269 233 vlineto
          -1 -6 0 -7 -7 vvcurveto
          102 callgsubr
        </CharString>
        <CharString name="uni091D">
          407 872 331 rmoveto
          -642 hlineto
          76 callgsubr
          220 hlineto
          146 callgsubr
          -1140 -59 584 -78 -375 hlineto
          -103 callsubr
          -24 callgsubr
          221 -272 88 -10 callsubr
        </CharString>
        <CharString name="uni091D094D">
          25 652 99 callgsubr
          230 59 -902 -59 584 -78 -375 vlineto
          -103 callsubr
          -24 callgsubr
          231 59 -652 -103 callgsubr
          33 -107 callsubr
          endchar
        </CharString>
        <CharString name="uni091D094D0928">
          1130 1594 248 callgsubr
          -75 -631 vlineto
          76 callgsubr
          942 hlineto
          45 callsubr
          -1863 -59 584 -78 -375 hlineto
          -103 callsubr
          -24 callgsubr
          210 -115 hlineto
          17 callgsubr
        </CharString>
        <CharString name="uni091D094D092E">
          1150 1614 -71 callsubr
          -415 -95 rmoveto
          -650 hlineto
          76 callgsubr
          643 226 callgsubr
          -1883 -59 584 -78 -375 hlineto
          -103 callsubr
          -24 callgsubr
          229 -115 hlineto
          -10 callgsubr
        </CharString>
        <CharString name="uni091D094D092F">
          1066 1531 176 -104 callgsubr
          -655 -195 rmoveto
          -37 -646 vlineto
          76 callgsubr
          539 244 callsubr
          -1799 -59 584 -78 -375 hlineto
          -103 callsubr
          -24 callgsubr
          225 -115 hlineto
          -84 callsubr
        </CharString>
        <CharString name="uni091D094D0930">
          407 872 331 rmoveto
          -642 hlineto
          76 callgsubr
          220 hlineto
          146 callgsubr
          -1140 -59 584 -78 -375 hlineto
          -103 callsubr
          -24 callgsubr
          221 -95 hlineto
          -246 -234 rlineto
          110 hlineto
          140 143 rlineto
          0 -4 -22 293 callgsubr
        </CharString>
        <CharString name="uni091D094D0930094D">
          39 652 252 rmoveto
          179 callsubr
          261 59 -682 hlineto
          76 callgsubr
          100 59 -772 -59 584 -78 -375 hlineto
          -103 callsubr
          -56 vlineto
          -53 26 -25 53 vhcurveto
          343 hlineto
          26 6 -6 -26 hvcurveto
          -72 -30 callgsubr
          -338 53 -89 -190 89 78 380 hlineto
          53 25 -77 callgsubr
          245 43 rmoveto
          -271 -257 rlineto
          110 hlineto
          205 204 rlineto
          endchar
        </CharString>
        <CharString name="uni091E">
          344 1057 8 callsubr
          -1077 -59 828 -245 -220 88 hlineto
          -18 callgsubr
          220 -259 -57 callgsubr
        </CharString>
        <CharString name="uni091E094D">
          -25 828 8 callsubr
          -848 -59 848 hlineto
          1 -245 rmoveto
          -241 88 hlineto
          -18 callgsubr
          241 vlineto
          endchar
        </CharString>
        <CharString name="uni091E094D091B">
          1066 1350 485 rmoveto
          -115 -75 callgsubr
          411 hlineto
          429 hmoveto
          59 -1799 -59 848 vlineto
          44 callsubr
          -177 vlineto
          -31 15 -16 26 -2 vhcurveto
          -4 -272 100 vlineto
          3 callgsubr
          90 231 -168 -100 callsubr
          662 79 callsubr
          -121 78 hlineto
          endchar
        </CharString>
        <CharString name="uni091E094D091C">
          1074 1787 8 callsubr
          -1807 -59 1558 166 callgsubr
          -167 -224 88 vlineto
          -18 callgsubr
          224 -102 205 callgsubr
        </CharString>
        <CharString name="uni091E094D0930">
          344 1057 8 callsubr
          -1077 -59 828 -245 -220 88 hlineto
          -18 callgsubr
          220 -50 69 callsubr
          -5 298 callsubr
          89 575 -62 callgsubr
        </CharString>
        <CharString name="uni091E094D0930094D">
          -15 544 -57 rmoveto
          111 hlineto
          223 223 -41 56 rlineto
          -249 184 rmoveto
          -18 callgsubr
          301 59 -301 vlineto
          -608 304 rmoveto
          -59 917 59 vlineto
          endchar
        </CharString>
        <CharString name="uni091E094D0936">
          1093 588 8 callsubr
          -608 -59 608 hlineto
          304 59 66 callsubr
          -49 -225 82 hlineto
          3 callgsubr
          108 225 -186 5 callsubr
        </CharString>
        <CharString name="uni091F">
          223 callsubr
          -327 -55 callgsubr
        </CharString>
        <CharString name="uni091F094D">
          71 337 -61 70 callsubr
          188 487 131 callgsubr
          -327 -55 callgsubr
        </CharString>
        <CharString name="uni091F094D091F">
          80 629 99 callgsubr
          164 59 -813 -59 561 -78 -342 vlineto
          -103 callsubr
          -141 vlineto
          -53 26 -25 53 vhcurveto
          310 -77 -310 hlineto
          -103 callsubr
          -141 vlineto
          -53 26 -25 53 vhcurveto
          367 214 callsubr
          147 callgsubr
          357 140 hlineto
          32 8 16 25 41 vvcurveto
          147 callgsubr
          endchar
        </CharString>
        <CharString name="uni091F094D0920">
          90 556 -80 rmoveto
          -98 callsubr
          -286 -103 callgsubr
          101 -107 callsubr
          286 -60 callsubr
          73 405 rmoveto
          137 174 59 -823 -59 561 -78 -342 vlineto
          -103 callsubr
          -141 vlineto
          -53 26 -25 53 vhcurveto
          141 -77 -141 hlineto
          -53 -27 -25 -53 hvcurveto
          -123 vlineto
          -53 27 -25 53 vhcurveto
          367 214 callsubr
          123 287 callsubr
          -141 77 141 214 callsubr
          147 callgsubr
          endchar
        </CharString>
        <CharString name="uni091F094D0928">
          223 callsubr
          -311 -100 callsubr
          287 158 callgsubr
          257 hlineto
          49 2 24 26 51 vvcurveto
          159 -89 -148 225 callgsubr
          289 -107 callsubr
          endchar
        </CharString>
        <CharString name="uni091F094D092F">
          1018 1482 -6 callsubr
          -567 78 866 242 callsubr
          -1751 -59 548 -78 -329 hlineto
          -53 -26 -26 -53 hvcurveto
          -327 -52 callsubr
          902 -13 callgsubr
        </CharString>
        <CharString name="uni091F094D0930">
          71 616 426 81 callgsubr
        </CharString>
        <CharString name="uni091F094D0930094D">
          71 338 -201 70 callsubr
          187 627 81 callgsubr
        </CharString>
        <CharString name="uni091F094D0935">
          71 526 185 rmoveto
          -112 vlineto
          -46 callgsubr
          -253 21 callsubr
          293 callsubr
          377 241 171 callgsubr
          207 callsubr
          -27 -76 callgsubr
          -141 68 callsubr
          -105 -100 callsubr
          295 -87 callgsubr
          -48 80 252 vlineto
          24 12 12 23 36 vvcurveto
          65 -89 -54 -95 callsubr
          -282 -103 callgsubr
          120 -107 callsubr
          endchar
        </CharString>
        <CharString name="uni0920">
          93 579 90 17 callsubr
          389 84 callsubr
        </CharString>
        <CharString name="uni0920094D">
          93 339 -61 70 callsubr
          149 151 17 callsubr
          389 84 callsubr
        </CharString>
</ttFont>
